<?xml version="1.0" encoding="UTF-8"?>
<svg id="Layer_2" data-name="Layer 2" xmlns="http://www.w3.org/2000/svg" viewBox="0 0 194.32 203.94">
  <defs>
    <style>
      .cls-1 {
        fill: #191970;
      }
    </style>
  </defs>
  <g id="Layer_1-2" data-name="Layer 1">
    <g>
      <path class="cls-1" d="M37.92,11.46h-.47c.56,1.28.89,1.8.98,1.58.02-.05-.2-.71-.52-1.58ZM42.7,15.49c-.23-1.15-.63-2.54-1.15-4.03h-.66c.97,2.11,1.4,3.63,1.75,5.97.16,1.07.34,2.01.4,2.08.16.18-.08-2.76-.34-4.02ZM43.46,11.46h-.64c.06.35.11.71.15,1.08.1.94.22,1.73.26,1.75.18.08.28-1.46.23-2.83ZM40.59,19.06c-.2-.76-.88-1.68-1.72-2.35-.48-.38-.61-.6-1.27-2.08-.79-1.77-1.2-2.64-1.67-3.17h-2.88s.03.01.04.03c.31.22.56.28.74.21.38-.16,1.59.01,1.91.27.16.13.69,1.19,1.38,2.73.69,1.55,1.2,2.56,1.33,2.64.32.18,1.37,1.44,1.53,1.85.26.64.18,1.53-.25,2.63h.23c.02.5.06,1.03.11,1.56.61-1.58.82-3.19.52-4.31ZM59.35,49.75l-.19.43.24-.32-.05-.11ZM36.9,65.47c-.26.02-.56.03-.86.04l.24.56c.67-.1,1.31-.25,1.91-.44,1.05-.33.93-.35-1.29-.17ZM49.85,11.87c-.04-.16-.08-.3-.1-.41h-.59l.08.61c.05.38.17.88.27,1.13.28.67.44,2.63.29,3.55-.07.44-.33,1.42-.59,2.18-.69,2.12-.76,2.37-.62,2.32.21-.09.99-1.83,1.26-2.84.54-1.97.54-4.45,0-6.53ZM31.98,11.46l-.07.48c-.06.44-.21,1.14-.33,1.55-.85,2.78-.95,5.11-.31,7.58.27,1.05.37.45.2-1.27-.08-.83-.14-2.03-.13-2.69.02-1.12.1-1.56.76-3.9.15-.55.27-1.19.28-1.45,0-.12,0-.21.01-.29h-.41ZM29.98,12.12c-.06-.14-.64.06-.66.23-.01.06.05.41.13.76.12.47.18.61.26.5.13-.18.33-1.32.26-1.5ZM28.65,20.19c-.32-.54-.82-1.69-1.14-2.56-.62-1.72-.71-2.37-.69-4.65,0-.82.03-1.26.25-1.51h-1.12c.08.37.09.66.07,1.15-.12,2.52.67,5.21,2.21,7.54.99,1.5,1.29,1.51.43.03ZM28.76,11.63c-.1-.26-.45.01-.66.52-.16.37-.16.64-.04.95.11.25.23.42.29.4.13-.05.49-1.68.41-1.87ZM25.3,16.18c-.09-.35-.16-1.24-.18-2-.02-.75-.07-1.38-.13-1.41-.21-.08-.36.42-.44,1.46-.07.98.08,1.66.45,2.09.39.45.43.43.29-.15ZM23.97,11.46h-.36c-.18.26-.36.78-.44,1.33-.06.44-.09.81-.08.85.02.03.16.21.32.42.16.2.33.33.39.31.25-.1.33-2.26.16-2.91Z"/>
      <path class="cls-1" d="M166.29,11.46c1.12,7.09,11.9,0-3.9,36.67l-52.43,121.64-33.61-79.7-1.2-2.85h0l-10.88-25.8c.32-.3.63-.62.93-.97.79-.91,2.13-3.22,2.28-3.92.06-.29.23-.84.37-1.21.56-1.52,1.36-5.73,1.41-7.44.11-3.48-.18-4.76-1.82-7.99-1.05-2.09-1.19-2.55-.98-3.47.12-.55.04-.72-.26-.59-.14.06-.27.04-.3-.04-.04-.09-.26-.02-.68.2-.34.19-1.6.81-2.79,1.38-3.32,1.6-4.82,2.53-6.38,4.37-3.3-8.38-4.91-13.9-5.51-17.68.84-1.2,1.48-2.29,1.39-2.43-.14-.21-.81,0-1.19.38-.11.11.13-.32.54-.97,1.37-2.16,2.45-5.41,2.38-7.05,0-.15-.01-.28-.04-.39-.04-.23-.32-1.07-.62-1.88-.03-.09-.06-.17-.09-.25-.3-.87-.48-1.59-.53-2.15-.12-1.26-.37-1.84-.88-1.97-.37-.1-.4-.15-.51-.78-.2-1.15-1.88-3.8-3-4.76-.83-.71-2.21-.95-2.71-.49-.14.13-.29.54-.34.91-.06.44-.19.76-.37.9-.38.27-.5.24-.8-.22-.37-.56-1.41-.81-2.14-.5-.27.11-.75-.03-2.15-.57-4.1-1.61-4.93-1.77-5.51-1.02-.15.2-.5.45-.79.57-.46.19-.57.18-1.1-.16-.32-.2-.78-.54-.99-.74-.42-.4-.91-.54-1.61-.47-.54.06-1.32.79-1.58,1.46-.09.23-.19.42-.23.44-.04.02-.22-.33-.4-.77-.45-1.1-.71-1.2-1.33-.56-.47.49-.71,1-.77,1.67-.04.52-1.2,3.05-2.66,5.8-.73,1.38-1.31,2.49-1.77,3.41H0c.91,5.75,7.61.01,18.61,17.13.35.54.7,1.1,1.06,1.69,2.28,3.76,4.72,8.5,7.34,14.5l2.61,5.97c-.42.11-.97.33-1.94.73-2.71,1.12-4.43,2.04-7.12,3.78-1.23.79-2.63,1.65-3.13,1.91-.86.45-1.17.71-1.07.88.03.04.23.16.46.25.72.3,1.7,1.64,3.27,4.45.49.87,1.29,2.1,1.78,2.73.49.62.92,1.21.95,1.3.04.09.47.64.95,1.22.47.57,1.06,1.28,1.28,1.55.73.88,2.38,2.09,3.5,2.59,2.12.92,4.06,1.21,6.57.98,1.63-.15,2.71-.36,3.89-.81l57.33,131.62h2.25L167.31,44.78c15.83-36.66,25.89-26.23,27.01-33.32h-28.03ZM67.21,53.2c-.38,2.02-.45,2.18-2.24,5.1-.37.59-.85,1.19-1.32,1.63-.23.22-.45.4-.66.53-.33.21-1.44.79-2.49,1.31-1.04.51-2.01,1.05-2.16,1.19-.25.24-.27.23-.32-.06-.03-.16-.11-.54-.18-.83-.08-.29-.12-.82-.11-1.19.03-.59.11-.75.88-1.62.59-.66,1.17-1.16,1.86-1.59.55-.35,1.27-.9,1.6-1.22l.08-.08c2.51-2.52,3.03-3.01,3.37-3.24.22-.15.77-.67,1.23-1.17.93-1.02.91-1.1.47,1.25ZM66.94,42.56c.19.28.83,3.03.87,3.8.03.41.03,1.39,0,2.17l-.03,1.42-.93,1.03c-.51.56-1.25,1.26-1.64,1.53-.86.61-1.86,1.53-3.03,2.78-.11.13-.23.24-.34.35-.5.5-.99.87-1.64,1.26-1.07.64-1.8,1.32-2.38,2.21-.13.21-.26.34-.28.29-.02-.04.08-1.02.22-2.16.54-4.35.6-4.52,1.97-6.45.01-.02.03-.04.04-.06.8-1.1,2.63-3.22,4.15-4.79.73-.75,1.67-1.85,2.11-2.45.56-.76.83-1.04.91-.93ZM59.14,49.24c0-.06.04-.16.13-.32.13-.23.13-.23.06.04-.04.15-.11.3-.13.3-.03.01-.04.01-.05,0,0,0-.01-.01-.01-.03ZM66.43,41.12s.11.24.18.5c.12.46.08.53-.81,1.59-.52.61-1.26,1.37-1.64,1.68-1.46,1.19-3.39,3.2-4.57,4.74l-.18.23-.24.32.19-.43.26-.59c.33-.74.73-1.32,1.44-2.11,1.05-1.15,1.41-1.53,2.97-3.17.53-.56,1.28-1.41,1.67-1.9.38-.49.71-.87.74-.87ZM65.65,37.07l.23-.21-.05.71c-.06.76.13,2.23.35,2.78.11.26-.02.47-.98,1.57-.61.7-1.23,1.36-1.37,1.48-.21.17-2.21,2.36-3.74,4.1-.11.13-.04-.18.16-.66.19-.48.41-.87.48-.85.07.01.13-.23.13-.53,0-.31.23-1.2.52-1.99.59-1.68.47-1.44,1.52-2.87.46-.62,1.07-1.48,1.38-1.91.51-.73.82-1.09,1.38-1.62ZM60.87,39.74c.69-.42,3.08-1.66,3.2-1.66.03.02-.17.3-.46.63-.76.88-2.13,3.05-2.28,3.63-.24.9-.48,1.55-.52,1.45-.03-.06-.17-.71-.32-1.47-.34-1.79-.28-2.18.38-2.58ZM54.6,45.75c.39-.59,1.03-1.4,2.04-2.57.15-.18.32-.38.5-.58.62-.71,1.74-1.67,2.38-2.04l.44-.25-.04.56c-.05.59.25,3.1.41,3.51.06.15-.26,1.14-.85,2.61-.21.52-.42,1.08-.61,1.59-.28.78-.49,1.46-.56,1.8-.11.56-.37,1.61-.56,2.33-.33,1.23-.49,2.07-.72,3.97-.12.95-.16.96-.21.07-.03-.44-.35-1.49-1.11-3.57-.93-2.54-1.1-3.11-1.19-4.08-.06-.61-.17-1.46-.25-1.86-.13-.69-.11-.81.33-1.49ZM52.34,51.58c.07-1.21.44-2.52,1.07-3.74l.45-.88.03.98c.06,2.03.11,2.43.45,3.65.2.69.67,2.02,1.06,2.96.56,1.37.77,2.04,1.02,3.38.28,1.48.35,2.18.4,3.96v.44s-.31-.26-.31-.26c-.18-.15-.54-.67-.82-1.16-.28-.49-.56-.93-.64-.98-.12-.08-.85-1.4-1.24-2.21-.08-.17-.45-1.38-.84-2.69-.62-2.17-.69-2.49-.64-3.43ZM56.43,69.42c-1.44-1.77-3.2-4.22-5.53-7.7-.71-1.07-1.99-2.93-2.85-4.17-3.77-5.41-6.69-10.11-9.22-14.79-2.83-5.25-2.71-5.01-2.8-6.05-.04-.52-.19-1.29-.32-1.72-.21-.67-.18-1.73.05-1.83.18-.08,1.41.59,1.83,1.01.49.49.97.64,2.56.86.52.07,1.07,0,2.19-.3.06-.02.14-.03.21-.05,1.51,4.88,3.71,10.62,6.6,17.46l7.28,17.27ZM39.47,30.03l.83-.25c.16-.05.46-.13.83-.23.12.5.25,1.02.39,1.55-.68-.31-1.22-.58-1.5-.74l-.55-.32ZM51.15,8.1c.06.03.17.65.25,1.39.08.71.19,1.28.4,1.97.08.29.18.6.31.95.53,1.49.56,1.63.45,2.5-.01.1-.03.2-.04.31-.06.43-.11.89-.14,1.12-.11.85-.92,2.98-1.49,3.9-.15.23-.37.54-.61.85h0c-.24.32-.5.62-.71.85-.43.46-.9,1.02-1.04,1.25-.25.39-.31.42-1.68.81-.79.23-1.5.4-1.59.38-.08-.01-.05-.16.07-.33.13-.16.44-.81.69-1.44.61-1.51.68-2.62.28-4.74-.39-2.05-.31-2.66.47-3.77l.26-.37-.04.51c-.04.47.42,2.91.66,3.55q.09.25.17-.07c.11-.46-.06-1.97-.35-3.17l-.26-1.07.45-.35c.25-.19.69-.67.97-1.05l.45-.61.06-.08v.08h.61c-.16-.68-.13-.78.11-1.07.16-.2.49-.81.74-1.35.25-.55.49-.97.54-.94ZM27.63,4.42c.09-.21.18-.62.19-.91.03-.69.28-1.15.72-1.34.2-.09.55-.4.8-.73.65-.81.99-.83,1.72-.09.57.59,1.2.86,1.6.71.13-.05.47-.06.78-.01.47.06.65.02,1.29-.33.73-.39.78-.4,1.43-.21,1.24.37,3.77,1.19,4.37,1.42.93.35,1.34.4,1.79.21.27-.11.56-.11.85.01.56.23.61.38.22.65-.17.11-.51.43-.76.7-.25.28-.47.54-.52.58-.04.05-.15-.1-.25-.33-.31-.75-1.31-1.3-2.53-1.39-.58-.04-1.6-.23-2.26-.41-1.54-.43-1.85-.32-2.41.81-.21.44-.48.87-.6.97-.13.11-.6.2-1.12.21-1.09.03-1.9.12-2.9.35-1.32.29-1.83.89-1.91,2.26-.03.55.12,2.11.23,2.37.14.33-.03.46-.67.54-.73.09-.91.03-1.4-.5-.43-.45-.93-1.77-.88-2.29.01-.16.26-.49.55-.74.5-.43,1.34-1.67,1.69-2.5ZM41.7,6.14c-.18.63-.22.67-.89.95-.53.21-.94.28-1.66.24-1.83-.09-2.71-.05-4.67.25-1.4.22-2.11.38-2.43.59-.52.32-1.14,1.07-1.34,1.62-.16.42-.21.45-.85.44-.47,0-.49-.02-.56-.53-.04-.29-.11-.75-.15-1.05-.18-1.19.1-1.94.93-2.5.5-.34.73-.42,1.27-.45.36-.03.74-.08.85-.13.11-.04.57,0,1.02.09.45.1.99.15,1.19.1.48-.1.86-.67.95-1.43.12-.94.43-1.11,1.6-.87.54.11,1.09.28,1.23.38.13.1.59.23,1.02.28.86.11,2.2.7,2.5,1.11.13.18.13.44,0,.91ZM29.48,28.02c-.61-.38-1.48-.87-1.94-1.08-1.56-.7-4.52-2.88-6.36-4.68-.5-.49-.64-.73-1.05-1.82-.45-1.18-.47-1.34-.45-2.86.03-1.37.11-1.8.55-2.97l.52-1.37v.72c-.03,1.84.37,3.04,1.64,4.98,1.3,1.99,2.81,3.65,3.8,4.21.28.16.29.15.06-.17-.13-.19-.61-.74-1.08-1.23-1.44-1.53-2.14-2.56-2.88-4.29-.64-1.51-.66-1.6-.8-3.38l-.14-1.82.47-.79.11-.19c.79-1.32,2.65-5.17,2.82-5.84.08-.3.31-1.02.52-1.6.33-.95.39-1.31.33-2.09-.02-.25.47-.71.67-.62.22.09.95,1.91.95,2.37,0,.68-.44,1.51-1.29,2.5-1.19,1.38-1.26,2.04-.38,4.33.2.52.32.86.39,1.15h1.12c.22-.26.66-.33,1.51-.43.69-.08,1.34-.11,1.43-.09.09.03.58.09,1.09.13l.93.07-.04.32h.41c.05-.32.21-.3.65,0h2.88c-.39-.45-.81-.66-1.53-.97-.71-.3-2.41-.49-2.85-.32-.35.13.25-.97.6-1.12.15-.06.45-.12.67-.12.22,0,.86-.1,1.41-.21.55-.11,1.22-.23,1.48-.26l.47-.07.85,2.08c.15.37.3.71.42,1h.47c-.09-.26-.2-.54-.31-.83l-.87-2.3h1.25c.9,0,1.31.07,1.44.23.1.13.61,1.12,1.14,2.21.11.23.21.46.32.67h.66c-.18-.51-.38-1.04-.59-1.58l-.71-1.84.63-.26c.35-.15.71-.33.8-.42.14-.13.17-.09.19.25.02.23.23,1.03.47,1.82.19.61.35,1.31.47,2.04h.64c-.02-.4-.04-.79-.09-1.12-.07-.47-.34-1.47-.62-2.24l-.49-1.39.36-.91c.42-1.07.8-1.52,1.58-1.84.49-.21.57-.2.67.05.06.16.09.85.05,1.53s-.04,1.63-.01,2.1c.03.47.03.93,0,1.03-.09.28.09,1.64.27,2.04.13.3.15.2.08-.46-.04-.45-.06-1.27-.04-1.79.03-.53.07-1.53.1-2.25.03-.72.1-1.5.16-1.74.06-.25.08-.63.04-.85-.03-.22,0-.56.07-.74.07-.2.16-.48.2-.66.06-.3.11-.28.81.38,1.16,1.08,1.95,2.23,3.07,4.42l.44.86-.37.97c-.25.65-.91,1.71-1.62,2.62-.37.48-.74.92-1.07,1.25-.77.75-1.46,1.99-1.57,2.81-.05.38-.08,1.38-.05,2.22.09,2.75.1,3.32.06,3.75-.04.43-.68,1.87-.87,1.96-.06.03-.4.37-.76.78l-.66.73-1.41.33c-.49.11-1.02.26-1.44.38-.25.08-.45.15-.58.2-1.17.47-1.24.38-.56-.74.33-.56.62-1.15.85-1.75-.05-.54-.09-1.06-.11-1.56h-.23c-.38.98-1.04,2.14-1.97,3.44-.26.37-.5.83-.55,1.03-.06.33-.16.41-.93.73-.5.21-1.01.51-1.24.74-.21.21-.4.37-.44.37-.03,0,.13-.54.34-1.18.73-2.22.92-3.15.86-5.13,0-.35-.03-.74-.05-1.18-.08-1.46-.28-3.41-.44-4.34-.16-.93-.31-1.85-.34-2.06-.08-.57-.42-.34-.56.38-.12.59-.48,2.09-1.24,5.17-.13.56-.37,1.31-.61,2.03-.17.5-.35.98-.5,1.38-.81,1.98-.93,2.88-.63,4.82l.2,1.27-.52-.28c-.09-.04-.21-.12-.37-.21-.35-.2-.83-.5-1.25-.76ZM19.5,56.78c.69-.46,1.7-1.14,2.26-1.53,1.34-.93,2.91-1.78,3.94-2.14l.83-.3.96.62c1.21.8,3.7,2.93,5.25,4.48.09.09.18.18.26.26.69.71,1.75,1.75,2.37,2.3.72.64,1.03.99.85.95-.14-.03-1.1-.26-2.18-.54-.04,0-.09-.02-.14-.03-1.91-.47-2.1-.54-2.62-1.07-.67-.67-3.66-2.64-5.36-3.53-1.19-.62-2.39-1.02-3.36-1.1-.87-.08-.62.15.81.71,1.62.65,3.39,1.65,5.05,2.85.66.48,1.44.99,1.76,1.15l.57.28-.49-.1c-1.24-.26-3.38-.69-4.52-.91-.7-.13-1.94-.41-2.74-.62-1.99-.52-3.86-.88-4.38-.86-.23.01-.4,0-.4-.03.01-.03.57-.43,1.27-.88ZM23.78,65.95c-.18-.25-.59-.78-.91-1.17-.76-.93-.76-.95-.11-.68.32.13,1.27.38,2.15.57.87.19,2.42.56,3.43.81,2.9.74,5.62.94,7.94.59l-.24-.56c-2.01.04-4.76-.18-6.24-.55-2.49-.62-6.33-1.34-7.06-1.34-.73.01-.74,0-1.07-.58-1.25-2.21-2.18-3.55-3.01-4.33q-.57-.54-.32-.5c.35.06,2.35.53,3.87.91.8.2,2.04.42,2.79.49.73.07,1.62.2,1.95.27.61.15,4.13,1.15,7.59,2.16,3.61,1.05,7.17,2.11,7.31,2.19.21.11.02.21-1.67.85-1.46.56-2.62.93-3.81,1.16-1.7.33-3.42.37-6.05.25-.73-.03-1.64-.06-2.01-.05-.37,0-1.2-.03-1.84-.08-.64-.05-1.43-.06-1.75-.03-.54.05-.62.01-.93-.4ZM45.03,65.91c-.87,1.38-1.6,2.2-3.15,3.51-1.67,1.43-1.69,1.44-3,1.91-.09.03-.17.06-.25.09-.87.31-1.56.45-2.66.57-2.01.23-3.48.13-5.15-.37-2.11-.63-3.46-1.56-5.23-3.6-1-1.15-1.02-1.18-.91-1.22.04-.02.42.01.86.07,2.56.33,7.29.56,8.67.42.59-.06,1.42-.24,2.4-.51,1.46-.4,3.24-1,5.07-1.73l1.21-.49,1.19.5,1.19.5-.22.34ZM43.38,63.71c-1.14-.43-2.63-.96-3.32-1.17-1.7-.52-2.28-.98-6.66-5.2-.54-.52-1.06-1.01-1.55-1.44-2.01-1.8-3.56-2.86-4.54-3.1-.26-.06-.47-.13-.48-.16,0-.04.57-.26,1.28-.53.93-.34,1.24-.44,1.9-.42.21,0,.47.02.81.04,2.53.18,5.14,1.33,7.2,3.17,1.21,1.09,2.01,1.96,4.11,4.55.71.88,1.53,1.85,1.82,2.17.4.43.66.88,1.01,1.73l.48,1.15-2.08-.79ZM37.09,42.03c.85,1.82,1.7,3.5,2.37,4.74.32.59.88,1.62,1.25,2.31.37.69.72,1.32.79,1.41.14.18,1.47,2.4,2.78,4.64.74,1.26,1.5,2.45,4.32,6.76,1.41,2.15,3.29,4.8,4.29,6.02.4.49.71.91.71.97-.01.03-.53-.22-1.15-.57-.62-.35-1.46-.79-1.87-1-.4-.19-1.43-.76-2.27-1.26l-1.02-.6-10.19-23.41ZM97.42,180.53l-49.39-113.4c.81.56,2.25,1.56,3.24,2.25,1.01.7,2.23,1.56,2.71,1.92,2.85,2.12,3.68,2.71,4,2.81.09.03.33.25.67.58l41.73,98.97-2.96,6.87Z"/>
      <g>
        <path class="cls-1" d="M36.9,65.47c-.26.02-.56.03-.86.04l.24.56c.67-.1,1.31-.25,1.91-.44,1.05-.33.93-.35-1.29-.17ZM49.85,11.87c-.04-.16-.08-.3-.1-.41h-.59l.08.61c.05.38.17.88.27,1.13.28.67.44,2.63.29,3.55-.07.44-.33,1.42-.59,2.18-.69,2.12-.76,2.37-.62,2.32.21-.09.99-1.83,1.26-2.84.54-1.97.54-4.45,0-6.53ZM43.46,11.46h-.64c.06.35.11.71.15,1.08.1.94.22,1.73.26,1.75.18.08.28-1.46.23-2.83ZM42.7,15.49c-.23-1.15-.63-2.54-1.15-4.03h-.66c.97,2.11,1.4,3.63,1.75,5.97.16,1.07.34,2.01.4,2.08.16.18-.08-2.76-.34-4.02ZM40.59,19.06c-.2-.76-.88-1.68-1.72-2.35-.48-.38-.61-.6-1.27-2.08-.79-1.77-1.2-2.64-1.67-3.17h-2.88s.03.01.04.03c.31.22.56.28.74.21.38-.16,1.59.01,1.91.27.16.13.69,1.19,1.38,2.73.69,1.55,1.2,2.56,1.33,2.64.32.18,1.37,1.44,1.53,1.85.26.64.18,1.53-.25,2.63h.23c.02.5.06,1.03.11,1.56.61-1.58.82-3.19.52-4.31ZM37.92,11.46h-.47c.56,1.28.89,1.8.98,1.58.02-.05-.2-.71-.52-1.58ZM31.98,11.46l-.07.48c-.06.44-.21,1.14-.33,1.55-.85,2.78-.95,5.11-.31,7.58.27,1.05.37.45.2-1.27-.08-.83-.14-2.03-.13-2.69.02-1.12.1-1.56.76-3.9.15-.55.27-1.19.28-1.45,0-.12,0-.21.01-.29h-.41ZM28.65,20.19c-.32-.54-.82-1.69-1.14-2.56-.62-1.72-.71-2.37-.69-4.65,0-.82.03-1.26.25-1.51h-1.12c.08.37.09.66.07,1.15-.12,2.52.67,5.21,2.21,7.54.99,1.5,1.29,1.51.43.03ZM18.61,28.59c-1.1,0-1.96.16-2.38.46-.6.42-.68.58-.32.67.15.04.38.03.49-.01.53-.21,1.78.02,3.27.57-.36-.59-.71-1.15-1.06-1.69Z"/>
        <path class="cls-1" d="M23.81,14.37c-.06.02-.23-.11-.39-.31-.16-.2-.3-.38-.32-.42-.01-.04.02-.41.08-.85.08-.55.25-1.07.44-1.33.09-.15.19-.22.27-.18.04.01.07.08.09.18.16.64.08,2.81-.16,2.91Z"/>
        <path class="cls-1" d="M25.01,16.33c-.37-.44-.52-1.11-.45-2.09.08-1.03.23-1.54.44-1.46.06.03.11.66.13,1.41.01.76.09,1.65.18,2,.14.57.1.59-.29.15Z"/>
        <path class="cls-1" d="M28.36,13.5c-.06.03-.18-.15-.29-.4-.13-.32-.12-.59.04-.95.21-.51.56-.78.66-.52.08.19-.28,1.82-.41,1.87Z"/>
        <path class="cls-1" d="M29.71,13.62c-.08.11-.15-.03-.26-.5-.08-.35-.15-.7-.13-.76.03-.17.61-.37.66-.23.07.17-.13,1.31-.27,1.5Z"/>
        <path class="cls-1" d="M39.28,10.44c-.09.54-.25.59-.56.18-.51-.67-.59-2.01-.11-1.82.39.16.76,1.08.66,1.64Z"/>
        <path class="cls-1" d="M44.37,6.85c-.08.39-.1.42-.28.24-.25-.26-.26-.28-.28-.78-.03-.45.25-.94.44-.8.15.11.21.84.12,1.34Z"/>
        <path class="cls-1" d="M46.75,6.67c-.11.04-.47-1.08-.49-1.54-.03-.71.28-.79.52-.13.16.43.13,1.6-.03,1.67Z"/>
        <path class="cls-1" d="M47.63,7.6c-.06.03-.2-.16-.3-.42-.22-.57-.17-1.77.09-1.88.21-.09.54.4.61.91.05.35-.23,1.32-.4,1.39Z"/>
      </g>
    </g>
  </g>
</svg>