<?xml version="1.0" encoding="UTF-8"?>
<svg id="Layer_2" data-name="Layer 2" xmlns="http://www.w3.org/2000/svg" viewBox="0 0 302.29 108.29">
  <defs>
    <style>
      .cls-1 {
        fill: #191970;
      }
    </style>
  </defs>
  <g id="Layer_2-2" data-name="Layer 2">
    <g id="Layer_1-2" data-name="Layer 1-2">
      <g>
        <path class="cls-1" d="M59.76.9c0,1.37,3.01,3.67.7,9.45l-24.22,60.59L13.61,10.17c-2.18-5.85.69-7.9.69-9.27H0c0,1.37,4.06,3.42,6.23,9.27l26.33,70.75h.84L61.58,10.35c2.32-5.81,6.79-8.08,6.79-9.45,0,0-8.61,0-8.61,0ZM33.05,74.39L8.73,9.03c-.78-2.1-1.78-3.79-2.75-5.13h4.34c-.38,1.82-.39,4.26.78,7.41l22.75,61.06-.8,2.02Z"/>
        <path class="cls-1" d="M59.76.9c0,1.37,3.01,3.67.7,9.45l-24.22,60.59L13.61,10.17c-2.18-5.85.69-7.9.69-9.27H0c0,1.37,4.06,3.42,6.23,9.27l26.33,70.75h.84L61.58,10.35c2.32-5.81,6.79-8.08,6.79-9.45,0,0-8.61,0-8.61,0ZM33.05,74.39L8.73,9.03c-.78-2.1-1.78-3.79-2.75-5.13h4.34c-.38,1.82-.39,4.26.78,7.41l22.75,61.06-.8,2.02Z"/>
        <path class="cls-1" d="M110.65,63.02c-2.9,9.55-11.31,17.88-23.74,17.88-15.99,0-24.87-12.16-24.87-27.04s8.88-27.05,24.87-27.05c9.25,0,21.31,5.61,23.09,19.94l-36.93,19.51c3.73,5.89,9.63,9.78,17.3,9.78s16.91-4.88,19.82-13.38l.46.37h0ZM72.44,65.19l30.61-16.2c-1.12-10.67-8.57-21.08-17.64-21.08-11.08,0-16.92,10.2-16.92,21.35,0,5.84,1.37,11.4,3.94,15.93h0Z"/>
        <path class="cls-1" d="M118.34,71.89V9.81c0-8.18-1.45-8.36-3.18-8.36h-.18v-.63l9.99-.82v71.9c0,10.79,3.09,7.09,3.36,9h-13.35c.27-1.91,3.36,1.79,3.36-9h0Z"/>
        <path class="cls-1" d="M182.71,53.94c0,14.98-8.89,27.05-24.87,27.05s-24.86-12.07-24.86-27.05,8.88-26.95,24.86-26.95,24.87,12.07,24.87,26.95ZM176.07,57.96c0-12.94-5.19-30.06-19.26-30.06-11.9,0-17.2,9.92-17.2,22.01,0,13.01,5.22,30.08,19.35,30.08,11.97,0,17.11-9.87,17.11-22.03h0Z"/>
        <path class="cls-1" d="M216.03,26.98c3.69,0,6.51,1.12,10.75,4.73l-2.46,9.05c-2.92-1.38-4.33-8.87-10.76-8.87-10.62,0-15.24,17.18-15.9,19.43v20.31c0,11.11,3.18,7.29,3.46,9.27h-13.75c.28-1.97,3.46,1.84,3.46-9.27v-34.16c0-8.43-1.4-8.61-3.27-8.61h-.19v-.66l10.28-.85v21.08c2.24-7.11,6.41-21.46,18.38-21.46h0Z"/>
        <path class="cls-1" d="M277.7,74.53c-.65,1.97-2.25,6.37-7.48,6.37-6.92,0-7.2-5.71-7.2-9.08v-3.56c-2.8,7.21-8.97,12.64-19.26,12.64-7.29,0-15.14-2.9-15.14-12.45,0-21.39,33.85-9.91,33.85-29.2,0-8.68-5.63-11.23-9.54-11.23-9.25,0-12.72,11.8-18.06,14.43l-2.46-9.05c6.19-2.6,12.36-6.49,20.02-6.49,11.66,0,16.6,4.65,16.6,11.39,0,16.49-32.55,10.92-32.55,29.39,0,8.79,5.05,11.42,10.37,11.42,9.44,0,14.21-7.42,16.17-13.31l.03-8.05,6.77-5.46.03,20.74c0,2.9.47,6.08,2.9,6.08,2.9,0,4.21-3.46,4.58-4.87,0,0,.18.09.37.28h0Z"/>
        <path class="cls-1" d="M302.29,12.67c0,6.64-5.39,12.07-12.03,12.07s-12.06-5.43-12.06-12.07,5.42-12.04,12.06-12.04,12.03,5.4,12.03,12.04ZM302.09,12.67c0-6.53-5.31-11.85-11.83-11.85s-11.86,5.32-11.86,11.85,5.31,11.88,11.86,11.88,11.83-5.32,11.83-11.88ZM296.19,19.54s.06.03.08.06c-.06.11-.48.57-1.44.57-3.81,0-1.61-6.76-5.05-6.76h-2.94v5.03c0,1.58.25,1.61.62,1.61h.03v.11c-.39-.03-.82-.06-1.3-.06-.45,0-.88.03-1.27.06v-.11h.03c.34,0,.62-.03.62-1.61V6.96c0-1.58-.28-1.61-.62-1.61h-.03v-.11c.4.03.82.06,1.27.06,1.81,0,2.63-.08,4.94-.08,3.11,0,4.89,1.84,4.89,4.1s-1.61,4.1-4.72,4.1h-.56c3.3.88,3.02,6.39,4.88,6.39.34,0,.51-.17.56-.25h0v-.02ZM290.29,13.26c3.05,0,4.43-1.75,4.43-3.96s-1.38-3.96-4.43-3.96h-2.82c-.37,0-.62.03-.62,1.61v6.31h3.45-.01Z"/>
        <g>
          <path class="cls-1" d="M78.38,97.2c2.37,0,3.83,1.18,4.46,2.58l-.67.34c-.45.22-.83.04-1.05-.24-.53-.61-1.4-1.16-2.74-1.16-2.07,0-3.69,1.6-3.69,4.02s1.62,3.93,3.69,3.93c1.34,0,2.19-.57,2.72-1.18.24-.26.61-.45,1.05-.2l.71.34c-.63,1.4-2.09,2.56-4.48,2.56-3.06,0-5.33-2.35-5.33-5.46s2.27-5.54,5.33-5.54h0Z"/>
          <path class="cls-1" d="M97.98,97.2c3.25,0,5.44,2.41,5.44,5.48s-2.19,5.52-5.44,5.52-5.43-2.45-5.43-5.52,2.15-5.48,5.43-5.48ZM94.21,102.67c0,2.33,1.34,3.99,3.77,3.99s3.77-1.66,3.77-3.99-1.36-3.95-3.77-3.95-3.77,1.62-3.77,3.95Z"/>
          <path class="cls-1" d="M113.26,106.99l.22-.41c.26-.47.79-.57,1.32-.34.77.41,1.78.63,2.76.63,1.38,0,2.29-.47,2.29-1.5,0-2.98-6.53-.85-6.53-5.09,0-2.21,2.01-3.04,3.85-3.04,1.5,0,2.86.45,3.67,1.01l-.2.43c-.24.51-.77.61-1.26.43-.69-.3-1.46-.47-2.25-.47-.87,0-2.17.3-2.17,1.54,0,2.76,6.51.65,6.51,5.11,0,1.99-1.72,3-3.85,3-1.89,0-3.37-.49-4.36-1.3Z"/>
          <path class="cls-1" d="M132.83,107.98h-.77v-10.59h.77c.49,0,.85.36.85.85v.87c.61-.93,1.68-1.91,3.39-1.91,1.56,0,2.84.87,3.43,2.15.63-.95,1.76-2.15,3.77-2.15,2.33,0,3.81,1.72,3.81,4.16v6.61h-.77c-.49,0-.85-.37-.85-.87v-5.46c0-1.78-.95-2.92-2.6-2.92s-2.98,1.44-2.98,3.49v5.76h-.77c-.51,0-.87-.37-.87-.87v-5.39c0-1.85-.95-2.98-2.53-2.98-1.93,0-3.02,2.05-3.02,3.57v4.81c0,.51-.36.87-.85.87h0Z"/>
          <path class="cls-1" d="M163.94,97.2c3.06,0,4.95,1.97,4.95,5.52,0,.24,0,.47-.02.71h-8.54c.1,1.83,1.58,3.33,3.97,3.33,1.18,0,2.03-.34,2.55-.63.41-.22.87-.2,1.2.16l.34.43s-1.34,1.48-4.18,1.48c-3.49,0-5.58-2.25-5.58-5.46,0-3.63,2.47-5.54,5.29-5.54h.02ZM160.34,102.08h6.83c-.08-2.01-1.08-3.45-3.22-3.45-2.01,0-3.49,1.36-3.61,3.45Z"/>
          <path class="cls-1" d="M182.87,106.71c.26,0,.47-.06.63-.06.41-.08.79.06.93.55l.12.53s-.71.47-1.85.47c-1.58,0-2.53-.87-2.53-2.41v-6.85h-1.54v-.67c0-.49.37-.85.85-.85h.69v-1.7c0-.51.36-.87.85-.87h.79v2.58h2.43v.65c0,.51-.36.87-.87.87h-1.56v6.55c0,.87.38,1.22,1.05,1.24v-.03Z"/>
          <path class="cls-1" d="M195.73,93.81c.65,0,1.07.47,1.07,1.05s-.43,1.07-1.07,1.07-1.1-.49-1.1-1.07.45-1.05,1.1-1.05ZM194.92,107.11v-9.71h.77c.49,0,.85.36.85.85v9.73h-.77c-.49,0-.85-.37-.85-.87Z"/>
          <path class="cls-1" d="M212.81,97.2c2.37,0,3.83,1.18,4.46,2.58l-.67.34c-.45.22-.83.04-1.05-.24-.53-.61-1.4-1.16-2.74-1.16-2.07,0-3.69,1.6-3.69,4.02s1.62,3.93,3.69,3.93c1.34,0,2.19-.57,2.72-1.18.24-.26.61-.45,1.05-.2l.71.34c-.63,1.4-2.09,2.56-4.48,2.56-3.06,0-5.33-2.35-5.33-5.46s2.27-5.54,5.33-5.54h0Z"/>
        </g>
      </g>
    </g>
  </g>
</svg>