<?xml version="1.0" encoding="UTF-8"?>
<svg id="Layer_2" data-name="Layer 2" xmlns="http://www.w3.org/2000/svg" viewBox="0 0 268.4 93.36">
  <defs>
    <style>
      .cls-1 {
        font-family: MontreuxJ-Rg, 'Montreux Jazz';
        font-size: 16.46px;
        letter-spacing: .53em;
      }

      .cls-2 {
        font-family: MontreuxGS-Rg, 'Montreux Grotesk Soft';
        font-size: 9px;
      }

      .cls-3 {
        letter-spacing: .51em;
      }

      .cls-4 {
        letter-spacing: .52em;
      }

      .cls-5 {
        letter-spacing: .52em;
      }

      .cls-6 {
        letter-spacing: .53em;
      }

      .cls-7 {
        letter-spacing: .53em;
      }

      .cls-8 {
        letter-spacing: .48em;
      }
    </style>
  </defs>
  <g id="Layer_1-2" data-name="Layer 1">
    <g>
      <g>
        <path d="M202.77,66.73v1.92c-.18-.31-.73-.66-1.63-1.03-.73-.29-1.77-.47-3.1-.53v15s0,.01,0,.02h0c.3.08.6.14.89.17.17.02.39.03.65.03.16,0,.42,0,.77-.02.35-.02.8-.34,1.37-.96-.6,1.26-1.4,1.97-2.39,2.13-.24.03-.48.05-.73.05-.2,0-.41-.01-.63-.03-.56-.06-1.25-.25-2.07-.58l-.09-.04s-.08-.03-.12-.05c-.92-.38-1.98-.9-3.16-1.57-1.19-.67-2.27-1.19-3.26-1.57-.79-.01-1.61-.02-2.46-.02.36-.01.57-.28.63-.81v-14.55c-.01-.53-.22-.8-.63-.81h3.09c-.4.01-.61.28-.63.81v14.71c.18.01.37.03.55.05.7.08,1.41.25,2.13.52.93.36,1.85.75,2.76,1.2.51.24,1.02.47,1.52.68v-14.36c-1.33.04-2.36.22-3.1.53-.9.38-1.45.72-1.63,1.03v-1.92h11.3Z"/>
        <polygon points="37.26 47.53 37.26 50.66 19.9 50.66 19.9 93.36 12.75 93.36 12.75 50.64 8.02 50.64 8.02 50.66 0 50.66 0 47.53 3.41 47.53 3.41 0 10.65 0 10.65 47.53 37.26 47.53"/>
        <path d="M75.61,70.45v22.02h-6.92v-23.39c0-7.55-3.21-12.78-10.37-12.78-7.95,0-12.13,5.95-12.13,14.47v21.7h-6.92v-54.97c-.05-.72-.08-1.46-.08-2.23V11.4h6.91v23.63c0,.31,0,.62.02.93,0,.59.03,1.17.07,1.75.43,5.96,2.56,11.11,9.63,10.26,6.03-.72,12.54-5.3,12.54-14.63V11.4h7v38.34h-7.16v-8.36c-2.33,5.95-8.36,8.84-12.29,9.16-4.01.33-7.22-.09-9.72-1.21v12.6c2.25-3.78,6.1-8.28,12.78-8.6,10.45-.57,16.64,6.91,16.64,17.12Z"/>
        <path d="M112.98,11.4h-3.7l-13.34,15.59-11.74-15.59h-7.56l15.2,20.33-15.36,18.01h3.78l13.34-15.59,11.66,15.59h7.72l-15.28-20.42,15.28-17.92Z"/>
        <path d="M148.27,30.77c0-11.34-7.48-20.26-18.97-20.26s-19.22,8.84-19.22,20.02c0,12.54,8.93,19.61,20.9,19.61,6.51,0,10.45-1.45,15.52-4.34v-4.42c-2.82,2.17-8.6,6.03-15.6,6.11-7.15.08-12.94-4.02-13.82-14.63h31.03c.08-.72.16-1.37.16-2.09ZM117.08,30.29c-.08-8.04,3.94-17.45,12.3-17.12,8.11.24,12.86,8.52,13.02,17.12h-25.32Z"/>
        <path d="M46.12,35.96c0,.59.03,1.17.07,1.75v-1.75h-.07Z"/>
        <path d="M87.91,62.17v-8.12h-6.59v38.42h6.91v-24.27c0-8.2,4.02-9.89,12.05-9.89.57,0,1.13,0,1.61.08v-5.14c-5.46,0-11.09,3.77-13.98,8.92Z"/>
        <path d="M138.47,73.5c0-11.33-7.48-20.25-18.97-20.25s-19.21,8.84-19.21,20.01c0,12.54,8.92,19.62,20.9,19.62,6.51,0,10.45-1.45,15.51-4.35v-4.42c-2.81,2.17-8.6,6.03-15.59,6.11-7.16.08-12.95-4.02-13.83-14.63h31.03c.08-.72.16-1.36.16-2.09ZM107.28,73.02c-.08-8.04,3.94-17.44,12.3-17.12,8.12.24,12.86,8.52,13.02,17.12h-25.32Z"/>
        <path d="M155.99,53.33c-6.67,0-11.97,2.33-15.43,5.14l1.45,2.33c3.69-2.81,8.36-5.22,12.62-5.22,8.52,0,9.72,4.42,9.72,7.96v6.99c-2.41-.48-5.06-.72-7.79-.72-8.69,0-18.33,2.81-18.41,12.53,0,8.69,6.83,10.94,13.02,10.94,4.98,0,10.77-2.41,12.94-7.64l-.08,6.83h7.16v-28.29c0-2.81-.16-10.85-15.2-10.85ZM153.34,90.71c-4.98.08-7.8-2.82-7.8-8.53,0-7.87,5.79-10.53,12.22-10.53,2.41,0,4.74.33,6.59.57l.08,2.49c0,6.35-2.01,15.83-11.09,16Z"/>
        <path d="M207.6,35.88v27.25c-3.54-7.07-9.16-9.8-14.31-9.8-11.49,0-18.41,8.52-18.41,19.93s7.88,20.02,19.38,20.02c5.3,0,10.69-3.38,13.66-10.77v9.88h6.67v-56.51h-6.99ZM194.82,90.38c-7.8,0-12.94-7.71-12.94-17.12s5.14-16.64,12.94-16.64,12.86,7.16,12.86,16.64-5.06,17.12-12.86,17.12Z"/>
        <path d="M223.76,62.65c0-4.66,5.87-6.75,9.4-6.75,4.59,0,7.96.72,12.22,3.05l1.05-2.57c-2.82-1.77-8.6-3.05-12.94-3.05-6.84,0-14.47,3.05-15.44,9.24-2.41,15.27,24.12,11.01,23.8,21.7-.16,4.51-5.23,6.19-9.01,6.19-7.39,0-12.7-2.81-14.06-3.37l-.81,2.97c3.94,2.01,9.73,3.14,14.79,3.14,6.43,0,14.95-1.53,15.52-9.09,1.04-15.51-24.52-10.53-24.52-21.46Z"/>
        <text class="cls-2" transform="translate(148.27 43.95) scale(.8 1)"><tspan class="cls-6" x="0" y="0">C</tspan><tspan class="cls-5" x="11.53" y="0">L</tspan><tspan class="cls-8" x="21.73" y="0">O</tspan><tspan class="cls-3" x="33.3" y="0">T</tspan><tspan class="cls-7" x="43.96" y="0">H</tspan><tspan class="cls-4" x="55.8" y="0">E</tspan><tspan class="cls-6" x="66.48" y="0">S</tspan></text>
      </g>
      <text class="cls-1" transform="translate(248.31 21.73)"><tspan x="0" y="0">™</tspan></text>
    </g>
  </g>
</svg>