<?xml version="1.0" encoding="UTF-8"?>
<svg id="Layer_1" data-name="Layer 1" xmlns="http://www.w3.org/2000/svg" viewBox="0 0 2000 2000">
  <defs>
    <style>
      .cls-1 {
        fill: #d7ccc8;
      }

      .cls-2 {
        fill-rule: evenodd;
      }
    </style>
  </defs>
  <rect class="cls-1" x="338.1" y="302.59" width="1323.81" height="1323.81" rx="180.11" ry="180.11"/>
  <g>
    <g>
      <path d="m1333.95,851.31c-10.82-2.39-8.12-23.09,2.8-21.05h0c55.65,10.81,107.51,19.34,137.64,74.52,25.97,47.44,27.24,110.24,17.14,164.39-10.91,58.7-32.74,95.9-77.39,120.7-40.05,22.18-80.46,25.37-121.22,11.83-17.41-5.8-32.38-13.54-50.69-23.55-27.24,38.91-53.66,46.87-86.86,60.86-47.17,20.02-53.4,22.3-101.74,32.31-67.83,13.99-140.25,23.43-205.01-17.75-39.15-25.03-55.02-58.81-48.98-111.26,2.26-19.91,6.58-32.53,17.95-45.28,33.91-38.11,109.77-49.71,156.13-49.94,35.81-.11,76.85,6.37,109.41,18.43,29.77,10.92,47.62,24.92,72.34,40.39,25.34,15.7,55.29,31.74,81.8,46.19,16.42-26.62,22.19-45.73,30.58-78.04,13.89-52.9,18.58-74.4,19.48-129.01.72-45.39-1.08-62.57-12.09-106.37-49.52,40.38-224.22,43.91-307.11,41.87-81.54-2.05-263.1-14.56-307.93-59.61-12.45,27.53-14.7,62.11-16.05,98.97-1.62,44.48-1.9,96.93,5.59,136.52,3.97,20.82,11.82,53.81,19.75,72.13,7.67,17.63,22.73,40.5,35.18,57.9,19.75,27.42,33.55,43,58,59.27,11.73,7.74,18.49,12.17,18.31,21.27-.18,12.52-12.36,14.22-23.36,16.95v.12c-17.68,4.44-44.74,10.46-60.88,21.27,12.9,10.12,47.8,24.23,64.4,29.12,21.01,6.37,41.13,8.42,61.6,12.52,33.91,6.83,69.72,9.44,110.76,12.06,28.86,1.82,65.21,4.44,86.95,4.44,26.52,0,100.21-7.28,128.98-11.49,49.43-7.28,85.51-19.79,129.43-45.73,8.57-5.12,33.46-20.13,33.64-32.19.09-5.35-13.26-11.61-17.5-13.08-24.44-8.76-67.83-2.28-95.97-3.19-5.23-.23-8.75-.46-12.18-.68-11.18-.91-10.1-22.3,1.08-21.39,35.27,2.73,82.53-5.81,111.66,4.55,36.53,13.08,40.14,45.05,8.39,70.53-22.64,18.2-64.67,38.45-90.56,47.1-52.32,17.4-114.1,21.61-169.3,25.6-26.07,1.82-31.03,1.59-58.45.11-31.39-1.59-85.86-4.66-117.43-7.74-37.7-3.64-45.28-7.05-73.51-11.61-36.26-6.03-63.86-13.99-97.86-32.53-7.58-4.1-13.26-7.85-16.87-11.49h0c-12.45-12.63-6.31-26.62,6.67-35.15,16.15-10.47,45.19-17.41,62.15-21.73-12.99-8.65-23.99-17.63-36.89-32.19h0c-19.3-21.96-49.52-65.07-61.33-92.38-11.27-26.05-22.82-78.04-25.8-107.96-3.97-40.73-3.07-124.12,2.35-166.66,4.51-34.81,12.36-50.85,20.38-66.21,4.33-20.82,41.13-36.97,98.31-46.53,122.03-20.48,319.2-15.47,440.42,11.15,58.26,12.86,94.88,31.51,96.96,53.13l8.75,35.38c8.3,37.54,8.93,56.54,8.3,94.42-.9,56.99-5.86,80.2-20.2,135.26-8.48,32.19-14.7,52.9-30.76,80.09,37.43,20.25,70.98,33.68,112.47,24.91,25.44-5.23,54.75-19.45,74.41-41.07,19.39-21.16,28.95-49.26,34.82-80.43,11.82-63.25,6.49-143.22-41.85-179.74-24.8-18.66-61.88-25.94-98.94-33.1l-.27-.11Zm-108.14,317.85c-32.83-17.98-62.68-34.02-93.62-54.15-36.89-24.12-59.35-34.47-103.99-41.98-50.33-8.3-106.07-5-153.78,12.06-18.76,6.83-45.64,20.37-53.76,40.73-4.69,11.83-6.31,35.27-4.42,50.28,3.52,28.44,18.58,44.59,40.05,58.36,60.97,38.79,130.78,28.89,194.55,15.7,51.32-10.58,55.29-12.97,104.89-33.79h0c-.81.34-1.35.57,0,0,29.22-12.17,49.7-20.25,70.08-47.21h0Zm-70.08,47.21c2.98-1.25,1.17-.57,0,0h0Zm114.64-398.62c.18-10.69-31.75-22.75-82.98-34.01-119.78-26.28-314.78-31.28-435.37-11.15-51.68,8.65-83.79,19.22-83.97,29.69-.18,10.35,31.57,22.64,82.98,33.9,119.87,26.28,314.78,31.29,435.37,11.04,51.5-8.53,83.52-19.11,83.97-29.47h0Z"/>
      <g>
        <path class="cls-2" d="m1150.19,689.52c7.07,0,12.85,5.77,12.85,12.93s-5.77,12.85-12.85,12.85-12.93-5.77-12.93-12.85,5.77-12.93,12.93-12.93h0Z"/>
        <path class="cls-2" d="m1231.91,657.97c14.23,0,25.86,11.55,25.86,25.77s-11.63,25.86-25.86,25.86-25.78-11.54-25.78-25.86,11.55-25.77,25.78-25.77h0Z"/>
        <path class="cls-2" d="m1164.5,637.88c7.15,0,12.93,5.77,12.93,12.93s-5.77,12.85-12.93,12.85-12.93-5.77-12.93-12.85,5.77-12.93,12.93-12.93h0Z"/>
        <path class="cls-2" d="m1237.68,614.95c7.89,0,14.31,6.42,14.31,14.31s-6.42,14.31-14.31,14.31-14.39-6.42-14.39-14.31,6.42-14.31,14.39-14.31h0Z"/>
      </g>
    </g>
    <g>
      <path d="m984.14,726.49c131.5-114.35-76.51-172.95,0-294.49-134.69,120.74,90.86,154.83,0,294.49Z"/>
      <path d="m957.24,726.49c76.46-56.84-24.48-101.23-17.18-161.79-45.33,76.36,70.01,92.37,17.18,161.79Z"/>
    </g>
  </g>
</svg>