<?xml version="1.0" encoding="UTF-8"?>
<svg id="Layer_1" data-name="Layer 1" xmlns="http://www.w3.org/2000/svg" viewBox="0 0 2000 2000">
  <defs>
    <style>
      .cls-1 {
        fill: #d7ccc8;
      }

      .cls-2, .cls-3 {
        fill: #4c382a;
      }

      .cls-3 {
        fill-rule: evenodd;
      }
    </style>
  </defs>
  <rect class="cls-1" x="338.1" y="302.59" width="1323.81" height="1323.81" rx="180.11" ry="180.11"/>
  <g>
    <g>
      <path class="cls-3" d="m1068.22,1016.22c2.41,0,4.37,1.55,4.37,3.48s-1.97,3.45-4.37,3.45-4.4-1.55-4.4-3.45,1.97-3.48,4.4-3.48h0Z"/>
      <path class="cls-3" d="m1096.05,1007.74c4.85,0,8.8,3.1,8.8,6.93s-3.96,6.95-8.8,6.95-8.78-3.1-8.78-6.95,3.93-6.93,8.78-6.93h0Z"/>
      <path class="cls-3" d="m1073.1,1002.34c2.44,0,4.4,1.55,4.4,3.48s-1.97,3.45-4.4,3.45-4.4-1.55-4.4-3.45,1.97-3.48,4.4-3.48h0Z"/>
      <path class="cls-3" d="m1098.01,996.17c2.69,0,4.87,1.73,4.87,3.85s-2.19,3.85-4.87,3.85-4.9-1.73-4.9-3.85,2.19-3.85,4.9-3.85h0Z"/>
      <g>
        <path class="cls-2" d="m933.12,1167.31c2.87.5,5.78.94,8.71,1.32l-8.71-1.32Z"/>
        <path class="cls-2" d="m1201.43,1035.45c-25.12-9.54-72.37-6.47-97.71,7.21-4.45-1.36-9.76-2.54-15.73-3.55-39.09-6.49-102.12-6.06-140.81.96-12.19,2.2-21.38,5.16-26.44,8.7-8.67-10.84-13.12-24.9-13.38-42.23-.63-42.01-.35-84.03.04-126.05.07-8.55,1.46-17.21,3.87-25.52,4.35-15.03,14.71-27.13,31.92-35.02,37.09-17.02,110.05-13.93,140.38,9.54,26.62,20.62,56.55,25.29,91.1,23.56,35.74-1.78,49.73-16.2,37.72-42.97-21.94-48.95-63.38-81.71-129.82-91.66-36.54-5.47-73.59-2.78-110.37-2.66-99.05.33-174.16,51.94-189.07,129.12-6.15,31.83-1.54,63.9-2.74,84.16l.02-.02c0,37.94-.89,64.23.17,90.46,3.06,76.15,61.97,132.6,152.54,147.82l8.71,1.32c-1.04-1.1-2.09-2.28-3.19-3.55-4.21-4.87-9.34-11.27-12.02-16.25-2.78-5.18-5.74-14.55-7.3-20.47-2.91-11.27-3.54-26.3-3.63-39.05-.06-10.57.2-20.49,3.78-28.5,6.97,5.83,23.4,9.35,41.59,11.43,20.71,2.37,43.69,2.85,57.58,2.75,4.56-.03,9.99-.14,15.95-.36,28.57-1.03,68.94-4.56,81.56-14.52,4.11,12.44,4.93,17.33,5.3,30.34.46,15.65-.74,21.86-4.48,37.13-2.24,9.33-3.82,14.86-8.69,22.65-8.67-3.9-18.45-8.2-26.77-12.46-8.1-4.2-13.99-8.05-23.64-10.9-10.56-3.14-23.77-4.62-35.2-4.24-14.8.5-38.87,4.55-49.19,15.77-3.45,3.76-4.67,7.41-5.11,13.14-.65,8.06.61,14.53,3.91,19.85,2.87,4.63,7.26,8.39,13.23,11.55,21.23,11.19,44.24,7.79,65.72,3.16,15.3-3.33,17.25-4.03,32.05-10.23,9.28-3.84,16.9-6.26,24.23-14.81.91-1.05,1.8-2.18,2.69-3.43,1.2.53,2.35,1.05,3.45,1.53,4.5,1.97,8.54,3.53,13.06,4.74,13.19,3.5,26.05,2.2,38.54-4.53,13.93-7.52,20.4-18.38,23.07-35.3.54-3.36.89-6.83,1.06-10.35,11.95-11.91,21.27-25.21,27.44-40.05,7.63-18.43,1.89-31.68-15.43-38.23Zm-113.52,27.93c-6.97,1.27-14.75,2.32-23.03,3.12-37.15,3.74-84.58,3.05-116.17-2.18-5.13-.86-9.67-1.75-13.47-2.68-4.15-2.63-7.84-5.61-11.06-8.94,3.91-2.23,12.38-4.51,23.99-6.61,38.24-6.9,100.6-7.31,139.2-.91,3.48.58,6.67,1.17,9.56,1.78,10.86,2.28,17.34,4.75,17.4,7.17-.02,2.97-10.1,6.3-26.42,9.23Zm5.76,101.29c-3,1.63-6.3,2.99-10.06,4.51,0,0-.04.02-.22.09-.09.03-.2.07-.28.12-.17.09-.26.12-.26.12-15.32,6.31-16.62,7.05-32.79,10.55-20.18,4.38-42.35,7.88-62.33-2.66-3.13-1.66-5.84-3.47-8.06-5.66-2.76-2.76-4.69-6.16-5.52-10.67-.83-4.29-.61-11.02.72-14.45,2.32-5.9,10.71-10.04,16.62-12.17,15.01-5.34,32.76-6.81,48.95-4.91,14.36,1.73,21.68,4.48,33.79,11.03,10.15,5.49,19.9,9.8,30.63,14.64-3.48,4.48-7.06,7.22-11.17,9.45h-.02Zm89.36-41.85c-1.46,8.99-4.13,17.12-10.04,23.37-5.97,6.37-15.14,10.72-23.2,12.46-9.91,2.18-18.53.72-27.44-2.49,15.95-5.97,30.87-13.81,44.69-23.63,5.87-4.17,11.36-8.56,16.47-13.16-.13,1.17-.3,2.32-.48,3.45Z"/>
        <path class="cls-2" d="m1096.33,1185.1c21.59,2,35.06,4.83,35.06,7.97,0,6.06-50.21,10.98-112.14,10.98s-112.14-4.91-112.14-10.98c0-3.14,13.47-5.97,35.06-7.97-43.62,2.72-72.81,7.68-72.81,13.34,0,8.59,67.11,15.56,149.89,15.56s149.89-6.96,149.89-15.56c0-5.67-29.19-10.62-72.81-13.34Z"/>
      </g>
      <path class="cls-2" d="m1020.75,1027.73c38.7-26.58-22.52-40.2,0-68.45-39.64,28.06,26.74,35.99,0,68.45Z"/>
      <path class="cls-2" d="m1012.83,1027.73c22.5-13.21-7.21-23.53-5.06-37.6-13.34,17.75,20.6,21.47,5.06,37.6Z"/>
    </g>
    <g>
      <path class="cls-2" d="m714.73,603.13c-9.13-12.84-7.09-27.06,5.15-35.76,10.07-7.16,20.11-6.58,27.97,1.38l.69.96-8.29,5.89c-4.58-4.62-9.61-4.92-15.19-.95-7.81,5.55-8.51,12.88-1.75,22.39,6.35,8.94,13.53,10.98,21.13,5.58,6.16-4.37,7.63-9.77,4.4-16.35l8.29-5.89.69.96c5.14,10.87,2.21,21.22-8.17,28.6-12.02,8.54-25.86,5.92-34.91-6.82Z"/>
      <path class="cls-2" d="m826.09,563.51l.53,1.06-9.48,4.78-7.81-7.29-19.12,9.65,1.2,10.62-9.36,4.72-.53-1.06-4.58-52.17,10.02-5.06,39.13,34.73Zm-23.3-7.57l-15.89-14.83-.12.06,2.43,21.62,13.57-6.85Z"/>
      <path class="cls-2" d="m841.75,515.31l3.88,11.46,21.72-7.35,2.78,8.22-21.71,7.35,6.49,19.17-9.75,3.3-15.98-47.19,34.33-11.63,2.82,8.34-24.58,8.32Z"/>
      <path class="cls-2" d="m934.49,524.8l1.71,8.76-37.32,7.27-9.53-48.9,37.05-7.22,1.68,8.64-26.95,5.25,2.16,11.1,25.33-4.94,1.66,8.52-25.33,4.94,2.32,11.89,27.21-5.3Z"/>
      <path class="cls-2" d="m990.13,504.19c.48-15.75,10.69-25.86,25.69-25.4,12.35.38,20,6.89,21.47,17.98l-.04,1.18-10.17-.31c-.86-6.45-4.69-9.72-11.54-9.93-9.58-.29-14.56,5.13-14.91,16.8-.33,10.96,4.16,16.92,13.48,17.2,7.55.23,11.98-3.18,13.38-10.37l10.16.31-.04,1.18c-2.47,11.77-11.05,18.25-23.78,17.87-14.74-.45-24.19-10.89-23.72-26.51Z"/>
      <path class="cls-2" d="m1099.58,539.1l-.21,1.16-10.4-1.87-1.14-10.17c-.8-7.05-2.43-9.04-8.14-10.06l-7.85-1.41-3.24,17.99-10-1.8,8.83-49.03,22.92,4.12c11.18,2.01,16.54,8.88,14.75,18.81-1.38,7.63-6.1,11.32-14.16,11.07,4.65,1.75,6.28,4.59,7.13,10.54l1.51,10.66Zm-14.68-28.58c6.09,1.1,9.1-.56,10-5.53.89-4.97-1.34-7.57-7.3-8.65l-11.7-2.11-2.56,14.2,11.57,2.08Z"/>
      <path class="cls-2" d="m1163.99,559.32l-.38,1.12-10.05-3.41-.27-10.68-20.28-6.88-6.74,8.3-9.93-3.37.38-1.12,34-39.84,10.63,3.6,2.64,52.26Zm-10.93-21.93l-.55-21.73-.13-.04-13.72,16.89,14.4,4.88Z"/>
      <path class="cls-2" d="m1230.2,547.01l-15.81-7.76-18.08,36.82-9.24-4.54,18.08-36.82-15.87-7.79,3.88-7.9,40.92,20.1-3.88,7.9Z"/>
      <path class="cls-2" d="m1265.36,607.88l-5.01,7.39-31.48-21.33,27.94-41.25,31.26,21.17-4.93,7.29-22.73-15.4-6.34,9.36,21.37,14.47-4.87,7.18-21.37-14.47-6.79,10.03,22.96,15.55Z"/>
      <path class="cls-2" d="m1291.88,611.07l15.69,13.59-5.27,6.09-15.7-13.59,5.27-6.09Z"/>
      <path class="cls-2" d="m1325.74,642.06l14.26,15.09-5.85,5.53-14.26-15.08,5.85-5.53Z"/>
      <path class="cls-2" d="m1358.17,675.23c12.75-9.26,26.99-7.39,35.82,4.76,7.27,10,6.81,20.03-1.07,27.98l-.96.7-5.98-8.22c4.57-4.63,4.81-9.66.78-15.2-5.64-7.75-12.97-8.37-22.41-1.51-8.87,6.44-10.83,13.65-5.34,21.19,4.44,6.11,9.85,7.52,16.39,4.23l5.98,8.22-.96.7c-10.82,5.26-21.2,2.44-28.69-7.86-8.67-11.93-6.21-25.79,6.43-34.98Z"/>
      <path class="cls-2" d="m1399.01,786.12l-1.05.54-4.89-9.42,7.2-7.88-9.86-19.01-10.61,1.31-4.83-9.31,1.05-.54,52.12-5.16,5.17,9.96-34.3,39.5Zm7.31-23.38l14.66-16.04-.06-.12-21.59,2.67,7,13.49Z"/>
      <path class="cls-2" d="m1447.39,801.24l-11.42,4.01,7.59,21.63-8.19,2.87-7.59-21.63-19.1,6.71-3.41-9.72,47.01-16.5,12.01,34.19-8.31,2.92-8.59-24.48Z"/>
      <path class="cls-2" d="m1438.95,894.11l-8.74,1.81-7.69-37.24,48.79-10.07,7.64,36.98-8.62,1.78-5.55-26.89-11.07,2.29,5.22,25.28-8.5,1.75-5.22-25.27-11.86,2.45,5.61,27.16Z"/>
      <path class="cls-2" d="m1460.17,949.52c15.75.31,25.98,10.4,25.69,25.41-.24,12.36-6.67,20.08-17.74,21.67l-1.18-.02.2-10.17c6.44-.93,9.67-4.8,9.8-11.65.19-9.58-5.29-14.5-16.96-14.73-10.96-.21-16.87,4.35-17.05,13.67-.15,7.55,3.32,11.94,10.52,13.26l-.2,10.17-1.18-.02c-11.79-2.34-18.37-10.85-18.13-23.58.28-14.74,10.62-24.31,26.24-24.01Z"/>
      <path class="cls-2" d="m1426.46,1059.34l-1.17-.2,1.76-10.42,10.16-1.25c7.04-.87,9.01-2.53,9.97-8.25l1.33-7.87-18.02-3.04,1.69-10.02,49.12,8.29-3.87,22.96c-1.89,11.2-8.69,16.63-18.64,14.96-7.65-1.29-11.39-5.97-11.22-14.04-1.7,4.67-4.53,6.33-10.46,7.25l-10.64,1.63Zm28.42-14.99c-1.03,6.11.66,9.09,5.64,9.93,4.98.84,7.56-1.42,8.56-7.4l1.98-11.72-14.23-2.4-1.96,11.59Z"/>
      <path class="cls-2" d="m1406.95,1123.97l-1.12-.37,3.3-10.09,10.67-.39,6.65-20.36-8.37-6.65,3.26-9.96,1.12.37,40.2,33.55-3.49,10.67-52.22,3.23Zm21.81-11.17l21.72-.79.04-.13-17.04-13.53-4.72,14.45Z"/>
      <path class="cls-2" d="m1420.01,1190.05l7.58-15.89-37.02-17.67,4.44-9.29,37.02,17.67,7.61-15.95,7.94,3.79-19.63,41.14-7.94-3.79Z"/>
      <path class="cls-2" d="m1359.54,1225.86l-7.44-4.92,20.98-31.72,41.55,27.47-20.83,31.49-7.34-4.85,15.14-22.9-9.43-6.23-14.24,21.52-7.23-4.78,14.23-21.52-10.1-6.68-15.3,23.13Z"/>
      <path class="cls-2" d="m1356.64,1252.42l-13.41,15.84-6.14-5.2,13.41-15.84,6.14,5.2Z"/>
      <path class="cls-2" d="m1326.03,1286.64l-14.93,14.43-5.6-5.79,14.93-14.43,5.6,5.79Z"/>
      <path class="cls-2" d="m1293.23,1319.42c9.4,12.64,7.69,26.9-4.36,35.86-9.91,7.38-19.96,7.03-27.99-.76l-.71-.95,8.16-6.07c4.68,4.52,9.71,4.7,15.21.61,7.69-5.72,8.22-13.06,1.26-22.43-6.54-8.79-13.77-10.67-21.25-5.11-6.06,4.51-7.41,9.94-4.04,16.44l-8.16,6.07-.71-.95c-5.38-10.75-2.67-21.17,7.54-28.77,11.83-8.8,25.72-6.49,35.05,6.04Z"/>
      <path class="cls-2" d="m1182.79,1361.49l-.56-1.04,9.37-4.99,7.97,7.11,18.9-10.07-1.43-10.6,9.25-4.93.56,1.04,5.74,52.06-9.91,5.28-39.89-33.86Zm23.46,7.05l16.21,14.48.12-.06-2.92-21.56-13.42,7.15Z"/>
      <path class="cls-2" d="m1168.22,1410.04l-4.14-11.38-21.54,7.84-2.97-8.15,21.54-7.84-6.92-19.02,9.68-3.52,17.03,46.82-34.06,12.39-3.01-8.27,24.38-8.87Z"/>
      <path class="cls-2" d="m1075.25,1402.63l-1.9-8.72,37.15-8.1,10.62,48.68-36.88,8.04-1.88-8.6,26.82-5.85-2.41-11.05-25.21,5.5-1.85-8.48,25.21-5.5-2.58-11.83-27.09,5.91Z"/>
      <path class="cls-2" d="m1020.08,1424.47c-.13,15.76-10.11,26.09-25.13,25.96-12.36-.1-20.15-6.45-21.86-17.5v-1.18s10.18.09,10.18.09c1,6.43,4.9,9.61,11.76,9.67,9.58.08,14.44-5.45,14.54-17.12.09-10.96-4.53-16.82-13.86-16.9-7.55-.06-11.91,3.45-13.15,10.66l-10.17-.08v-1.18c2.22-11.82,10.65-18.49,23.39-18.38,14.75.12,24.42,10.36,24.29,25.98Z"/>
      <path class="cls-2" d="m909.9,1391.98l.18-1.17,10.44,1.64,1.37,10.15c.95,7.03,2.62,8.98,8.36,9.88l7.88,1.24,2.84-18.05,10.04,1.58-7.74,49.21-23.01-3.62c-11.22-1.76-16.73-8.51-15.17-18.47,1.21-7.66,5.84-11.45,13.91-11.38-4.69-1.64-6.38-4.45-7.36-10.38l-1.75-10.62Zm15.31,28.25c-6.12-.96-9.09.76-9.87,5.75-.78,4.99,1.5,7.54,7.49,8.48l11.75,1.85,2.24-14.25-11.61-1.83Z"/>
      <path class="cls-2" d="m845.05,1373.2l.35-1.13,10.12,3.18.51,10.67,20.43,6.42,6.55-8.45,10,3.14-.35,1.13-33.1,40.58-10.71-3.37-3.81-52.18Zm11.42,21.68l1.04,21.71.13.04,13.34-17.19-14.5-4.56Z"/>
      <path class="cls-2" d="m779.14,1386.99l15.98,7.41,17.25-37.21,9.34,4.33-17.25,37.21,16.04,7.44-3.7,7.98-41.36-19.18,3.7-7.99Z"/>
      <path class="cls-2" d="m742.63,1326.92l4.84-7.5,31.95,20.62-27.02,41.87-31.72-20.47,4.77-7.4,23.07,14.88,6.13-9.5-21.68-13.99,4.7-7.29,21.68,13.99,6.57-10.18-23.3-15.03Z"/>
      <path class="cls-2" d="m716.05,1324.32l-15.99-13.24,5.13-6.2,15.99,13.24-5.13,6.2Z"/>
      <path class="cls-2" d="m681.5,1294.08l-14.6-14.77,5.73-5.66,14.6,14.77-5.73,5.66Z"/>
      <path class="cls-2" d="m648.37,1261.66c-12.54,9.54-26.82,7.98-35.91-3.96-7.49-9.83-7.25-19.88.45-28l.94-.72,6.16,8.09c-4.47,4.73-4.6,9.76-.44,15.22,5.81,7.62,13.15,8.08,22.44,1.01,8.72-6.64,10.52-13.89,4.87-21.31-4.57-6.01-10.02-7.3-16.48-3.86l-6.16-8.09.94-.72c10.7-5.49,21.14-2.91,28.85,7.22,8.93,11.73,6.77,25.65-5.66,35.11Z"/>
      <path class="cls-2" d="m605.06,1151.68l1.04-.57,5.1,9.31-7.03,8.04,10.28,18.79,10.58-1.55,5.03,9.2-1.04.57-51.99,6.32-5.39-9.85,33.42-40.26Zm-6.79,23.54l-14.3,16.37.07.12,21.53-3.15-7.3-13.34Z"/>
      <path class="cls-2" d="m556.36,1137.66l11.33-4.27-8.08-21.46,8.12-3.06,8.08,21.46,18.94-7.13,3.63,9.64-46.62,17.56-12.77-33.92,8.24-3.1,9.14,24.28Z"/>
      <path class="cls-2" d="m562.72,1044.63l8.7-2,8.52,37.06-48.56,11.17-8.46-36.79,8.58-1.97,6.15,26.76,11.02-2.53-5.78-25.15,8.46-1.95,5.78,25.15,11.8-2.71-6.22-27.03Z"/>
      <path class="cls-2" d="m540.26,989.7c-15.76.04-26.2-9.82-26.24-24.84-.03-12.36,6.23-20.22,17.26-22.05h1.18s.03,10.16.03,10.16c-6.42,1.07-9.56,5.01-9.54,11.86.02,9.58,5.61,14.38,17.28,14.35,10.96-.03,16.78-4.72,16.75-14.04-.02-7.55-3.58-11.87-10.81-13.03l-.03-10.17h1.18c11.84,2.07,18.61,10.44,18.64,23.17.04,14.75-10.09,24.54-25.71,24.58Z"/>
      <path class="cls-2" d="m571.55,879.15l1.17.17-1.53,10.45-10.13,1.48c-7.02,1.03-8.95,2.72-9.79,8.47l-1.15,7.89,18.08,2.64-1.47,10.05-49.3-7.2,3.36-23.04c1.64-11.24,8.33-16.82,18.31-15.37,7.68,1.12,11.52,5.71,11.54,13.79,1.59-4.7,4.38-6.43,10.3-7.48l10.6-1.87Zm-28.08,15.62c.89-6.13-.86-9.08-5.86-9.81-5-.73-7.52,1.59-8.4,7.59l-1.72,11.77,14.28,2.08,1.7-11.63Z"/>
      <path class="cls-2" d="m589.6,814.1l1.13.34-3.07,10.16-10.66.63-6.19,20.5,8.52,6.46-3.03,10.04-1.13-.34-40.95-32.65,3.25-10.75,52.13-4.39Zm-21.55,11.66l-21.7,1.28-.04.13,17.34,13.14,4.4-14.55Z"/>
      <path class="cls-2" d="m575.07,748.35l-7.23,16.06,37.41,16.83-4.23,9.39-37.41-16.83-7.26,16.12-8.03-3.61,18.71-41.57,8.03,3.61Z"/>
      <path class="cls-2" d="m634.73,711.17l7.55,4.76-20.27,32.18-42.16-26.55,20.12-31.95,7.45,4.69-14.63,23.23,9.57,6.02,13.75-21.84,7.34,4.62-13.75,21.84,10.25,6.45,14.78-23.47Z"/>
      <path class="cls-2" d="m637.03,684.56l13.06-16.14,6.26,5.07-13.06,16.14-6.26-5.07Z"/>
      <path class="cls-2" d="m666.88,649.68l14.61-14.76,5.72,5.66-14.61,14.76-5.72-5.66Z"/>
    </g>
  </g>
</svg>