<?xml version="1.0" encoding="UTF-8"?>
<svg id="Layer_2" data-name="Layer 2" xmlns="http://www.w3.org/2000/svg" viewBox="0 0 1731.15 693.32">
  <defs>
    <style>
      .cls-1 {
        fill-rule: evenodd;
      }

      .cls-1, .cls-2 {
        fill: #2d2218;
      }
    </style>
  </defs>
  <g id="Layer_1-2" data-name="Layer 1">
    <g>
      <g>
        <path class="cls-2" d="M578.79,225.52c.57-12.67-1.62-32.74,1.3-52.67,7.07-48.29,42.7-80.6,89.7-80.8,17.46-.08,35.03-1.76,52.37,1.67,31.52,6.23,51.18,26.72,61.59,57.35,5.7,16.75-.94,25.77-17.9,26.89-16.38,1.08-30.59-1.84-43.22-14.74-14.38-14.69-49-16.62-66.6-5.97-8.17,4.94-13.08,12.52-15.14,21.92-1.14,5.2-1.8,10.63-1.84,15.97-.18,26.3-.31,52.6-.01,78.89.33,28.05,13.94,42.34,40.8,43.78,18.51,1,34.95-2.83,48.47-17.78,10.29-11.38,36.88-14.62,50.25-7.93,8.21,4.11,10.94,12.4,7.32,23.92-4.57,14.51-12.78,26.66-23.63,36.84-15.04,14.11-32.92,21.68-52.87,23.56-16.01,1.5-32.18,1.89-48.13-.08-48.58-5.98-80.78-42.97-82.35-94.22-.5-16.42-.08-32.87-.08-56.61h-.03Z"/>
        <path class="cls-2" d="M1032.25,377.38c-21.75-.28-28.13-4.81-36.15-25.96-1.68-4.45-3.63-8.81-5.01-13.36-4.53-14.94-14.83-21.5-29.21-21.69-18.36-.24-36.74-.27-55.09.03-13.98.22-24.07,6.61-28.73,21.12-2.36,7.36-5.22,14.57-8.25,21.66-4.73,11.07-12.93,17.32-24.75,17.75-7.73.29-15.51.84-23.18-.74-10.88-2.23-15.23-8.78-12.73-20.08,3.57-16.08,10.13-31.12,15.61-46.52,22.74-63.9,45.58-127.76,68.6-191.56,8.01-22.19,13.74-25.97,36.58-26.12,2.58-.01,5.17-.01,7.75,0,24.62.09,30.42,4.2,38.9,27.97,25.83,72.28,51.63,144.55,77.38,216.85,2.19,6.15,4.28,12.41,5.71,18.78,2.72,12.15-1.79,18.89-13.72,20.86-4.51.74-9.15.68-13.71.99h0v.02ZM934.75,254.93c14.38-.13,21.39-7.31,19.36-20.55-1.5-9.8-4.86-19.15-9.77-27.59-5.86-10.07-14.13-9.79-20.05.44-4.01,6.93-6.44,14.68-8.52,22.44-4.35,16.28,2.61,25.42,18.98,25.26h0Z"/>
        <path class="cls-2" d="M1093.09,234.47c0-36.77-.04-73.53.06-110.3.02-5.34.33-10.79,1.31-16.02,1.51-8.07,6.51-13.26,14.29-14.85,4.47-.91,9.1-1.31,13.66-1.31,49.07-.09,98.13-.08,147.19,0,4.56,0,9.16.53,13.67,1.26,3.75.6,7.45,2.23,9.51,5.62,8.02,13.22,6.94,27.75,2.69,41.44-3.52,11.32-14.05,12.62-24.35,12.59-30.99-.07-61.98-.16-92.96.18-16.75.18-24.72,8.8-24.59,25.28.13,15.47,7.58,24.03,22.64,24.5,17.77.56,35.57.35,53.37.26,10.36-.04,21.33.18,25.88,11.61,5.04,12.68,5.19,26.51-.65,39.16-3.51,7.58-10.98,10.07-18.95,10.1-16.07.05-32.14.09-48.2.16-4.3.02-8.63-.07-12.9.34-13.52,1.3-20.32,8.16-21.05,22.34-.63,12.22-.29,24.5-.35,36.75-.05,9.26.04,18.53-.16,27.79-.08,3.55-.36,7.23-1.31,10.61-3.57,12.71-14.09,16.82-37.45,14.94-12.38-.99-19.57-7.53-20.86-19.65-.63-5.92-.48-11.94-.49-17.91-.03-34.97-.02-69.94-.01-104.91h.01v.02Z"/>
        <path class="cls-2" d="M1509.6,314.46c20.19.14,26.67,7.15,26.9,28.29.02,2.09.02,4.18-.01,6.28-.38,20.13-7.42,27.84-26.66,27.99-35.01.26-70.02.13-105.03.14-15.79,0-31.57.18-47.35-.13-18.77-.36-25.59-7.29-25.71-26.79-.24-38.86-.07-77.72-.07-116.58h-.05v-112.1c0-5.38.03-10.76,1.43-16.02,1.92-7.23,6.39-11.84,13.28-13.9,5.03-1.5,10.21-1.52,15.38-1.52,48.21,0,96.41-.07,144.63.03,24.6.04,30.32,6.27,30.18,32.1-.02,2.09-.02,4.19-.14,6.28-.94,15.83-8.02,23.56-23.28,24.08-15.48.54-30.99.24-46.48.29-17.21.04-34.44-.23-51.65.16-20.34.47-30.71,18.05-22.37,37.58,4.05,9.47,12.15,12.19,21.25,12.3,16.64.21,33.28.16,49.92.2,28.06.07,34.51,7.17,33.03,36.31-.85,16.82-7.36,24.01-23.55,24.44-19.22.52-38.46,0-57.68.4-20.57.43-30.13,14.9-23.68,35.19,2.35,7.38,6.91,12.46,14.49,13.66,4.8.76,9.7,1.15,14.54,1.18,29.56.13,59.12-.04,88.67.16h-.01l.02-.02ZM1438.4,57.81c-5.81-2.49-4.42-8.44-3.43-13.34,2.18-10.79,4.8-21.48,7.1-32.25,1.85-8.62,6.71-12.89,13.85-12.13,13.92-.05,17,5.34,11.15,16.75-5.79,11.31-11.32,22.75-17.32,33.94-2.35,4.39-5.52,9.51-11.35,7.02h0Z"/>
        <path class="cls-2" d="M578.79,541.14c.57-12.67-1.62-32.74,1.3-52.67,7.07-48.29,42.7-80.6,89.7-80.8,17.46-.08,35.03-1.76,52.37,1.67,31.52,6.23,51.18,26.72,61.59,57.35,5.7,16.75-.94,25.77-17.9,26.89-16.38,1.08-30.59-1.84-43.22-14.74-14.38-14.69-49-16.62-66.6-5.97-8.17,4.94-13.08,12.52-15.14,21.92-1.14,5.2-1.8,10.63-1.84,15.97-.18,26.3-.31,52.6-.01,78.89.33,28.05,13.94,42.34,40.8,43.78,18.51,1,34.95-2.83,48.47-17.78,10.29-11.38,36.88-14.62,50.25-7.93,8.21,4.11,10.94,12.4,7.32,23.92-4.57,14.51-12.78,26.66-23.63,36.84-15.04,14.11-32.92,21.68-52.87,23.56-16.01,1.5-32.18,1.89-48.13-.08-48.58-5.98-80.78-42.97-82.35-94.22-.5-16.42-.08-32.87-.08-56.61h-.03Z"/>
        <path class="cls-2" d="M827.45,549.5c.01-37.65-.08-75.3.05-112.94.08-22.8,5.83-28.84,27.56-28.93,30.7-.13,61.39-.3,92.07.08,34.05.43,60.09,16.56,74.96,48.08,14.99,31.79,11.47,63.23-9.27,91.96-2.24,3.1-4.59,6.15-6.56,9.43-4.24,7.06-4.73,14.52.99,20.68,25.23,27.19,24.23,61.12,22.96,95.14-.09,2.61-.93,5.34-2.01,7.73-4.82,10.77-18.56,14.84-37.74,11.4-11.26-2.03-16.78-8.04-17.91-20.6-1.12-12.47-.09-25.07-2.11-37.54-1.85-11.35-5.1-22.05-11.4-31.61-12.3-18.66-39.49-27.9-59.79-20.27-6.84,2.57-10.53,7.82-12.02,15.1-1.94,9.47-1.1,19.05-1.21,28.59-.17,14.34.14,28.69-.22,43.02-.4,16-7.65,23.23-23.12,23.89-.57.02-1.14.03-1.72.04-27.91.69-33.49-4.91-33.52-33.89-.04-36.45,0-72.91,0-109.36h.02,0ZM924.73,468.26c-6.87.34-13.81.07-20.57,1.14-11.8,1.86-17.67,10.01-17.93,23.48-.28,14.03,5.42,23.3,17.31,24.84,15.64,2.02,31.5,2.54,47.06-1.11,11.94-2.8,18.61-11.85,18.43-23.53-.17-11.09-7.06-19.47-18.61-22.56-8.44-2.26-17.05-2.02-25.67-2.27h-.02Z"/>
        <path class="cls-2" d="M1281.98,693.01c-21.75-.28-28.13-4.81-36.15-25.96-1.68-4.45-3.63-8.81-5.01-13.36-4.53-14.94-14.83-21.5-29.21-21.69-18.36-.24-36.74-.27-55.09.03-13.98.22-24.07,6.61-28.73,21.12-2.36,7.36-5.22,14.57-8.25,21.66-4.73,11.07-12.93,17.32-24.75,17.75-7.73.29-15.51.84-23.18-.74-10.88-2.23-15.23-8.78-12.73-20.09,3.57-16.07,10.13-31.12,15.61-46.52,22.74-63.9,45.58-127.76,68.6-191.56,8.01-22.19,13.74-25.97,36.58-26.12,2.58-.01,5.17-.01,7.75,0,24.62.09,30.42,4.2,38.9,27.98,25.83,72.28,51.63,144.55,77.38,216.85,2.19,6.15,4.28,12.41,5.71,18.78,2.72,12.15-1.79,18.89-13.72,20.86-4.51.74-9.15.68-13.71.99h0v.02ZM1184.48,570.56c14.38-.13,21.39-7.31,19.36-20.55-1.5-9.8-4.86-19.15-9.77-27.59-5.86-10.07-14.13-9.79-20.05.44-4.01,6.93-6.44,14.68-8.52,22.44-4.35,16.28,2.61,25.42,18.98,25.26h0Z"/>
        <path class="cls-2" d="M1393.27,407.59c24.97,0,49.92-.03,74.89,0,10.06.02,20.82.74,24.66,12.14,4.51,13.41,5.52,27.71-2.53,40.53-3.91,6.23-10.74,7.72-17.5,8.01-7.74.34-15.5.16-23.24.34-18.83.43-26.08,7.73-26.15,27.46-.19,53.2-.09,106.41-.13,159.62,0,5.37.12,10.78-.32,16.13-1.03,12.54-7.81,19.89-19.86,20.63-25.69,1.56-39.3.77-38.6-35.76.96-50.79.26-101.62.22-152.44,0-5.08.08-10.2-.54-15.21-1.51-12.35-7.64-18.81-19.55-19.94-8.26-.78-16.62-.43-24.94-.6-20.71-.43-27.04-7.15-27.25-28.96-.01-1.2,0-2.39,0-3.59.19-21.19,6.64-28.19,26.79-28.33,24.68-.17,49.35-.04,74.03-.04h.02Z"/>
        <path class="cls-2" d="M1527.98,549.9c0-37.97-.1-75.95.04-113.92.08-22.13,5.99-28.31,27.26-28.36,49.65-.13,99.31-.14,148.97,0,20.72.06,26.65,6.43,26.88,27.87.03,2.99.04,5.98-.08,8.97-.65,16.02-7.66,23.68-23.13,23.87-29.27.35-58.55.16-87.82.22-4.31,0-8.63-.1-12.91.36-13.67,1.5-20.52,9.95-20.46,24.9.06,14.89,6.99,23.18,20.78,24.61,3.71.38,7.46.3,11.18.32,16.08.06,32.15-.12,48.22.15,17.1.28,24.06,7.61,24.57,25.19.88,30.33-4.04,35.61-33.21,35.68-15.22.04-30.44-.26-45.64.18-21.57.61-31.74,16.98-24.09,38.29,2.25,6.28,6.62,10.3,12.9,12.08,5.06,1.43,10.22,1.46,15.38,1.47,29.57.04,59.13-.09,88.69.14,19.09.15,25.25,6.73,25.57,26.49.08,4.78.16,9.6-.33,14.33-1.2,11.59-7.81,18.34-18.96,19.68-2.84.34-5.73.35-8.59.35-49.08.02-98.17.09-147.25-.02-21.52-.04-27.87-6.65-27.95-28.93-.12-37.97-.03-75.95-.03-113.91h-.02.03Z"/>
      </g>
      <g>
        <path class="cls-1" d="M329.18,452.56c2.75,0,4.99,1.89,4.99,4.23s-2.24,4.21-4.99,4.21-5.03-1.89-5.03-4.21,2.24-4.23,5.03-4.23h0Z"/>
        <path class="cls-1" d="M360.94,442.23c5.53,0,10.05,3.78,10.05,8.44s-4.52,8.46-10.05,8.46-10.02-3.78-10.02-8.46,4.49-8.44,10.02-8.44h0Z"/>
        <path class="cls-1" d="M334.74,435.66c2.78,0,5.02,1.89,5.02,4.23s-2.24,4.21-5.02,4.21-5.03-1.89-5.03-4.21,2.24-4.23,5.03-4.23h0Z"/>
        <path class="cls-1" d="M363.19,428.15c3.07,0,5.56,2.1,5.56,4.68s-2.5,4.69-5.56,4.69-5.59-2.1-5.59-4.69,2.5-4.68,5.59-4.68h0Z"/>
        <g>
          <path class="cls-2" d="M174.98,636.49c3.27.61,6.6,1.15,9.94,1.61l-9.94-1.61Z"/>
          <path class="cls-2" d="M481.23,475.96c-28.67-11.61-82.61-7.87-111.52,8.77-5.08-1.65-11.13-3.09-17.95-4.32-44.61-7.9-116.56-7.37-160.73,1.17-13.91,2.67-24.4,6.29-30.18,10.59-9.9-13.2-14.98-30.31-15.28-51.4-.72-51.13-.4-102.29.05-153.44.07-10.4,1.66-20.95,4.41-31.06,4.96-18.3,16.79-33.02,36.43-42.63,42.33-20.72,125.61-16.96,160.23,11.61,30.38,25.11,64.55,30.79,103.98,28.68,40.8-2.17,56.77-19.72,43.05-52.3-25.05-59.59-72.34-99.47-148.18-111.58-41.71-6.66-84-3.38-125.98-3.24-113.06.4-198.79,63.23-215.81,157.18-7.02,38.75-1.76,77.79-3.12,102.45l.02-.02c0,46.18-1.02,78.18.2,110.12,3.5,92.7,70.73,161.42,174.12,179.95l9.94,1.61c-1.19-1.34-2.38-2.78-3.65-4.32-4.81-5.93-10.66-13.72-13.71-19.78-3.17-6.31-6.55-17.71-8.33-24.92-3.32-13.72-4.04-32.02-4.14-47.54-.07-12.87.22-24.94,4.32-34.69,7.96,7.1,26.71,11.38,47.47,13.91,23.63,2.88,49.87,3.47,65.72,3.34,5.21-.04,11.41-.17,18.2-.44,32.61-1.25,78.69-5.56,93.1-17.67,4.69,15.14,5.63,21.1,6.05,36.93.52,19.05-.84,26.61-5.11,45.2-2.55,11.36-4.36,18.09-9.92,27.57-9.9-4.74-21.05-9.98-30.55-15.16-9.25-5.12-15.97-9.8-26.98-13.26-12.05-3.82-27.13-5.62-40.18-5.16-16.89.61-44.37,5.54-56.15,19.2-3.94,4.57-5.33,9.02-5.83,16-.74,9.82.69,17.69,4.46,24.17,3.27,5.64,8.28,10.21,15.1,14.06,24.23,13.62,50.49,9.48,75.02,3.84,17.46-4.05,19.69-4.91,36.58-12.45,10.59-4.68,19.29-7.62,27.65-18.03,1.04-1.27,2.06-2.65,3.08-4.18,1.36.65,2.68,1.27,3.94,1.86,5.13,2.4,9.75,4.3,14.9,5.76,15.05,4.26,29.73,2.67,43.99-5.51,15.9-9.15,23.29-22.37,26.34-42.97.62-4.09,1.02-8.31,1.21-12.6,13.64-14.5,24.28-30.68,31.32-48.75,8.7-22.43,2.16-38.56-17.61-46.54h.03ZM351.65,509.97c-7.96,1.55-16.84,2.82-26.29,3.8-42.41,4.55-96.55,3.72-132.6-2.65-5.85-1.04-11.04-2.13-15.38-3.26-4.74-3.2-8.95-6.83-12.62-10.88,4.46-2.72,14.14-5.49,27.38-8.04,43.65-8.4,114.82-8.9,158.89-1.11,3.97.71,7.61,1.42,10.91,2.17,12.4,2.78,19.79,5.79,19.86,8.73-.02,3.61-11.53,7.67-30.16,11.24h.01ZM358.22,633.27c-3.42,1.98-7.19,3.63-11.48,5.49,0,0-.05.02-.25.1-.1.04-.22.08-.32.15-.2.1-.3.15-.3.15-17.48,7.69-18.97,8.58-37.42,12.85-23.04,5.33-48.33,9.59-71.15-3.24-3.57-2.03-6.67-4.22-9.2-6.89-3.15-3.36-5.36-7.5-6.3-12.99-.94-5.22-.69-13.41.82-17.59,2.65-7.19,12.23-12.22,18.97-14.81,17.14-6.5,37.4-8.29,55.87-5.97,16.39,2.11,24.75,5.45,38.56,13.43,11.58,6.68,22.72,11.93,34.97,17.82-3.97,5.45-8.06,8.79-12.75,11.51h-.02,0ZM460.22,582.33c-1.66,10.95-4.71,20.85-11.46,28.45-6.82,7.75-17.29,13.05-26.49,15.16-11.31,2.65-21.15.88-31.32-3.03,18.2-7.27,35.24-16.81,51.01-28.76,6.7-5.08,12.97-10.42,18.8-16.02-.15,1.42-.35,2.82-.55,4.2h.01Z"/>
          <path class="cls-2" d="M361.26,658.13c24.64,2.44,40.02,5.88,40.02,9.7,0,7.38-57.31,13.36-128,13.36s-128-5.98-128-13.36c0-3.82,15.38-7.27,40.02-9.7-49.79,3.31-83.11,9.35-83.11,16.24,0,10.46,76.6,18.94,171.09,18.94s171.09-8.48,171.09-18.94c0-6.9-33.32-12.93-83.11-16.24h0Z"/>
        </g>
        <path class="cls-2" d="M274.99,466.57c44.18-32.35-25.7-48.93,0-83.32-45.25,34.16,30.52,43.81,0,83.32Z"/>
        <path class="cls-2" d="M265.95,466.57c25.68-16.08-8.22-28.64-5.77-45.78-15.23,21.6,23.52,26.13,5.77,45.78Z"/>
      </g>
    </g>
  </g>
</svg>