<?xml version="1.0" encoding="UTF-8"?>
<svg id="Layer_1" data-name="Layer 1" xmlns="http://www.w3.org/2000/svg" viewBox="0 0 2000 2000">
  <defs>
    <style>
      .cls-1 {
        fill: #d7ccc8;
      }

      .cls-2, .cls-3 {
        fill: #4c382a;
      }

      .cls-3 {
        fill-rule: evenodd;
      }
    </style>
  </defs>
  <rect class="cls-1" x="338.1" y="305.19" width="1323.81" height="1323.81" rx="180.11" ry="180.11"/>
  <g>
    <path class="cls-3" d="m1129.67,1075.95c4.58,0,8.31,2.95,8.31,6.61s-3.74,6.57-8.31,6.57-8.37-2.95-8.37-6.57,3.74-6.61,8.37-6.61h0Z"/>
    <path class="cls-3" d="m1182.55,1059.82c9.21,0,16.73,5.9,16.73,13.17s-7.52,13.22-16.73,13.22-16.68-5.9-16.68-13.22,7.47-13.17,16.68-13.17h0Z"/>
    <path class="cls-3" d="m1138.93,1049.56c4.63,0,8.37,2.95,8.37,6.61s-3.74,6.57-8.37,6.57-8.37-2.95-8.37-6.57,3.74-6.61,8.37-6.61h0Z"/>
    <path class="cls-3" d="m1186.29,1037.84c5.11,0,9.26,3.28,9.26,7.31s-4.16,7.32-9.26,7.32-9.31-3.28-9.31-7.32,4.16-7.31,9.31-7.31h0Z"/>
    <g>
      <path class="cls-2" d="m872.89,1363.12c5.45.95,10.99,1.79,16.56,2.51l-16.56-2.51Z"/>
      <path class="cls-2" d="m1382.84,1112.49c-47.74-18.13-137.55-12.29-185.7,13.7-8.46-2.58-18.54-4.83-29.9-6.75-74.29-12.33-194.09-11.51-267.63,1.83-23.17,4.17-40.63,9.82-50.26,16.53-16.48-20.61-24.94-47.32-25.44-80.26-1.2-79.84-.66-159.71.08-239.57.12-16.24,2.77-32.71,7.35-48.5,8.26-28.57,27.96-51.56,60.66-66.56,70.49-32.35,209.16-26.48,266.81,18.13,50.59,39.2,107.49,48.07,173.15,44.78,67.93-3.39,94.52-30.79,71.69-81.66-41.71-93.04-120.46-155.3-246.74-174.22-69.46-10.4-139.87-5.28-209.78-5.05-188.26.62-331.02,98.72-359.35,245.41-11.69,60.5-2.93,121.45-5.2,159.97l.04-.03c0,72.11-1.69,122.07.33,171.93,5.82,144.74,117.77,252.03,289.93,280.96l16.56,2.51c-1.98-2.09-3.96-4.34-6.07-6.75-8.01-9.26-17.76-21.43-22.84-30.88-5.29-9.85-10.9-27.66-13.87-38.91-5.53-21.43-6.73-50-6.9-74.23-.12-20.09.37-38.94,7.19-54.17,13.26,11.09,44.47,17.77,79.04,21.72,39.35,4.5,83.04,5.41,109.43,5.22,8.67-.07,19-.26,30.31-.68,54.3-1.96,131.03-8.67,155.02-27.59,7.8,23.64,9.37,32.94,10.08,57.66.87,29.74-1.4,41.55-8.51,70.57-4.25,17.74-7.27,28.24-16.52,43.05-16.48-7.4-35.06-15.59-50.88-23.68-15.4-7.99-26.59-15.3-44.93-20.71-20.07-5.97-45.18-8.77-66.9-8.06-28.12.95-73.88,8.64-93.49,29.97-6.57,7.14-8.88,14.09-9.7,24.98-1.24,15.33,1.16,27.62,7.43,37.73,5.45,8.81,13.79,15.95,25.15,21.95,40.35,21.26,84.08,14.81,124.92,6,29.07-6.33,32.79-7.66,60.91-19.44,17.63-7.31,32.13-11.9,46.04-28.14,1.74-1.99,3.43-4.14,5.12-6.52,2.27,1.01,4.46,1.99,6.57,2.9,8.55,3.75,16.23,6.72,24.82,9,25.07,6.65,49.51,4.17,73.26-8.61,26.47-14.28,38.78-34.93,43.86-67.08,1.03-6.39,1.69-12.98,2.02-19.67,22.71-22.63,40.43-47.91,52.16-76.12,14.49-35.03,3.59-60.2-29.32-72.66Zm-215.77,53.09c-13.26,2.41-28.04,4.4-43.77,5.94-70.61,7.11-160.76,5.8-220.8-4.14-9.75-1.63-18.38-3.33-25.6-5.09-7.89-4.99-14.91-10.66-21.02-16.99,7.43-4.24,23.54-8.58,45.59-12.56,72.68-13.11,191.2-13.89,264.58-1.73,6.61,1.11,12.68,2.22,18.17,3.39,20.65,4.34,32.95,9.03,33.08,13.63-.04,5.64-19.2,11.97-50.21,17.55Zm10.94,192.51c-5.7,3.1-11.98,5.67-19.12,8.58,0,0-.08.03-.41.16-.17.07-.37.13-.54.23-.33.16-.5.23-.5.23-29.11,12-31.59,13.4-62.31,20.06-38.36,8.32-80.48,14.97-118.47-5.05-5.95-3.16-11.11-6.59-15.32-10.76-5.24-5.25-8.92-11.71-10.49-20.29-1.57-8.15-1.16-20.94,1.36-27.46,4.42-11.22,20.36-19.08,31.59-23.12,28.53-10.14,62.27-12.95,93.04-9.33,27.3,3.29,41.21,8.51,64.21,20.97,19.28,10.44,37.83,18.62,58.23,27.82-6.61,8.51-13.42,13.73-21.23,17.97h-.04Zm169.85-79.54c-2.77,17.09-7.85,32.55-19.08,44.42-11.36,12.1-28.78,20.38-44.1,23.68-18.83,4.14-35.22,1.37-52.16-4.73,30.31-11.35,58.68-26.25,84.94-44.91,11.15-7.92,21.6-16.27,31.3-25.01-.25,2.22-.58,4.4-.91,6.56Z"/>
      <path class="cls-2" d="m1183.09,1396.92c41.03,3.8,66.64,9.18,66.64,15.15,0,11.52-95.42,20.86-213.14,20.86s-213.14-9.34-213.14-20.86c0-5.97,25.6-11.35,66.64-15.15-82.91,5.17-138.39,14.59-138.39,25.36,0,16.33,127.55,29.56,284.89,29.56s284.89-13.24,284.89-29.56c0-10.77-55.48-20.19-138.39-25.36Z"/>
    </g>
    <path class="cls-2" d="m1039.43,1097.83c73.56-50.52-42.8-76.4,0-130.09-75.34,53.34,50.82,68.4,0,130.09Z"/>
    <path class="cls-2" d="m1024.38,1097.83c42.77-25.11-13.7-44.72-9.61-71.47-25.36,33.73,39.16,40.8,9.61,71.47Z"/>
  </g>
</svg>