<?xml version="1.0" encoding="UTF-8"?>
<svg id="Layer_1" data-name="Layer 1" xmlns="http://www.w3.org/2000/svg" viewBox="0 0 2000 2000">
  <defs>
    <style>
      .cls-1, .cls-2 {
        fill: #2d2218;
      }

      .cls-2 {
        fill-rule: evenodd;
      }
    </style>
  </defs>
  <path class="cls-1" d="m168.62,757.86c.87-19.31-2.46-49.9,1.98-80.27,10.78-73.61,65.08-122.84,136.71-123.16,26.61-.11,53.39-2.68,79.82,2.55,48.04,9.49,78,40.73,93.87,87.42,8.68,25.53-1.43,39.27-27.28,40.98-24.97,1.65-46.63-2.8-65.88-22.47-21.92-22.39-74.69-25.33-101.5-9.11-12.45,7.54-19.93,19.08-23.08,33.4-1.74,7.93-2.74,16.2-2.8,24.34-.27,40.08-.48,80.17-.02,120.24.5,42.76,21.24,64.54,62.18,66.74,28.22,1.51,53.27-4.31,73.87-27.09,15.68-17.34,56.21-22.28,76.59-12.08,12.51,6.26,16.67,18.89,11.15,36.46-6.97,22.12-19.48,40.63-36.02,56.15-22.92,21.5-50.17,33.04-80.59,35.91-24.39,2.29-49.05,2.89-73.35-.12-74.04-9.11-123.12-65.49-125.51-143.61-.77-25.02-.13-50.1-.13-86.29h-.02Z"/>
  <path class="cls-1" d="m840.07,989.33c-33.16-.43-42.87-7.33-55.1-39.56-2.57-6.78-5.54-13.43-7.64-20.36-6.91-22.76-22.61-32.77-44.53-33.06-27.99-.37-55.99-.41-83.97.04-21.31.34-36.69,10.08-43.79,32.19-3.59,11.21-7.96,22.2-12.58,33.02-7.2,16.87-19.7,26.4-37.71,27.06-11.79.44-23.65,1.28-35.32-1.13-16.59-3.4-23.22-13.38-19.41-30.61,5.44-24.5,15.43-47.44,23.79-70.91,34.66-97.39,69.47-194.72,104.56-291.96,12.21-33.83,20.94-39.58,55.76-39.81,3.94-.02,7.87-.02,11.81-.01,37.52.13,46.36,6.4,59.3,42.64,39.37,110.16,78.7,220.31,117.94,330.52,3.34,9.37,6.52,18.91,8.7,28.63,4.14,18.51-2.73,28.79-20.91,31.79-6.87,1.13-13.94,1.04-20.9,1.5v.02Zm-148.61-186.63c21.92-.21,32.6-11.14,29.51-31.32-2.29-14.93-7.41-29.18-14.9-42.06-8.92-15.34-21.53-14.91-30.55.67-6.11,10.56-9.82,22.37-12.98,34.2-6.63,24.81,3.98,38.74,28.92,38.5Z"/>
  <path class="cls-1" d="m913.1,771.5c0-56.04-.07-112.07.08-168.11.03-8.14.51-16.44,2-24.41,2.3-12.31,9.92-20.22,21.77-22.64,6.81-1.39,13.87-2,20.82-2.01,74.79-.13,149.57-.13,224.35,0,6.94.01,13.96.81,20.83,1.92,5.71.91,11.35,3.39,14.5,8.57,12.23,20.16,10.59,42.3,4.1,63.17-5.36,17.26-21.42,19.23-37.11,19.2-47.23-.11-94.47-.25-141.68.27-25.53.27-37.68,13.41-37.47,38.53.2,23.59,11.55,36.63,34.51,37.35,27.09.85,54.22.52,81.34.4,15.79-.07,32.5.27,39.44,17.7,7.69,19.32,7.91,40.4-.98,59.69-5.35,11.55-16.74,15.35-28.89,15.39-24.49.08-48.98.13-73.47.24-6.56.03-13.15-.11-19.67.51-20.61,1.98-30.96,12.44-32.08,34.05-.97,18.63-.44,37.34-.54,56.01-.08,14.12.07,28.25-.24,42.37-.12,5.41-.54,11.01-2,16.17-5.44,19.38-21.47,25.63-57.07,22.78-18.88-1.5-29.84-11.47-31.8-29.94-.95-9.02-.73-18.19-.74-27.29-.05-53.3-.04-106.61-.02-159.9h.02Z"/>
  <g>
    <path class="cls-1" d="m168.6,1244.41c.87-19.31-2.46-49.9,1.98-80.27,10.78-73.6,65.09-122.83,136.71-123.15,26.61-.12,53.39-2.68,79.82,2.55,48.04,9.49,78,40.73,93.87,87.41,8.68,25.53-1.43,39.27-27.28,40.98-24.97,1.65-46.63-2.8-65.87-22.47-21.92-22.39-74.69-25.33-101.5-9.11-12.45,7.53-19.93,19.08-23.08,33.4-1.74,7.93-2.74,16.2-2.8,24.34-.27,40.08-.48,80.17-.02,120.23.51,42.75,21.24,64.54,62.18,66.73,28.22,1.52,53.27-4.31,73.87-27.09,15.68-17.34,56.21-22.28,76.58-12.08,12.52,6.27,16.67,18.89,11.15,36.46-6.97,22.12-19.48,40.63-36.02,56.14-22.92,21.5-50.17,33.04-80.59,35.9-24.39,2.29-49.05,2.88-73.35-.12-74.04-9.11-123.11-65.49-125.51-143.6-.77-25.02-.12-50.09-.12-86.28h-.02Z"/>
    <path class="cls-1" d="m527.89,1257.14c.02-57.38-.12-114.76.07-172.14.12-34.75,8.89-43.96,42-44.09,46.78-.21,93.56-.46,140.33.12,51.9.65,91.58,25.25,114.25,73.28,22.85,48.45,17.49,96.37-14.12,140.16-3.41,4.73-7,9.37-9.99,14.37-6.46,10.77-7.21,22.13,1.51,31.51,38.46,41.44,36.93,93.15,34.99,145-.14,3.97-1.42,8.13-3.06,11.78-7.35,16.42-28.28,22.62-57.51,17.38-17.17-3.09-25.58-12.25-27.3-31.4-1.71-19.01-.14-38.21-3.22-57.22-2.81-17.3-7.77-33.6-17.37-48.17-18.76-28.44-60.19-42.52-91.13-30.9-10.42,3.91-16.04,11.92-18.32,23.02-2.96,14.44-1.68,29.04-1.84,43.58-.26,21.85.22,43.73-.34,65.57-.61,24.38-11.66,35.4-35.23,36.42-.87.03-1.75.05-2.62.07-42.54,1.06-51.04-7.48-51.1-51.65-.06-55.56-.01-111.12,0-166.67h.03Zm148.27-123.82c-10.47.51-21.05.1-31.36,1.74-17.98,2.84-26.93,15.26-27.33,35.79-.43,21.38,8.26,35.51,26.38,37.86,23.83,3.08,48.02,3.88,71.72-1.7,18.2-4.27,28.37-18.07,28.09-35.85-.26-16.91-10.77-29.67-28.37-34.38-12.86-3.45-25.99-3.08-39.13-3.45h-.01Z"/>
    <path class="cls-1" d="m1200.98,1475.87c-33.15-.42-42.87-7.33-55.1-39.56-2.57-6.78-5.53-13.43-7.63-20.36-6.91-22.76-22.61-32.77-44.53-33.05-27.99-.37-55.99-.41-83.97.04-21.31.34-36.69,10.08-43.79,32.19-3.6,11.21-7.96,22.2-12.58,33.02-7.21,16.87-19.7,26.4-37.71,27.06-11.79.44-23.64,1.28-35.33-1.13-16.58-3.4-23.22-13.38-19.41-30.61,5.44-24.5,15.43-47.43,23.79-70.9,34.66-97.39,69.47-194.71,104.55-291.95,12.21-33.82,20.93-39.58,55.76-39.81,3.94-.02,7.88-.02,11.81-.01,37.52.13,46.36,6.41,59.29,42.64,39.37,110.15,78.7,220.3,117.94,330.5,3.34,9.37,6.52,18.91,8.7,28.63,4.15,18.51-2.72,28.79-20.91,31.79-6.87,1.13-13.94,1.04-20.9,1.5h0Zm-148.6-186.63c21.92-.21,32.6-11.14,29.51-31.32-2.29-14.93-7.41-29.18-14.9-42.05-8.92-15.34-21.53-14.92-30.55.67-6.11,10.56-9.82,22.37-12.98,34.2-6.63,24.81,3.98,38.74,28.92,38.5Z"/>
    <path class="cls-1" d="m1350.89,1040.86c38.06,0,76.09-.05,114.15,0,15.34.03,31.73,1.13,37.58,18.5,6.88,20.44,8.42,42.23-3.85,61.78-5.96,9.49-16.37,11.76-26.68,12.21-11.79.51-23.62.24-35.42.51-28.7.65-39.75,11.79-39.85,41.84-.29,81.09-.13,162.18-.19,243.27,0,8.19.18,16.43-.49,24.59-1.57,19.11-11.9,30.32-30.27,31.45-39.16,2.38-59.9,1.18-58.83-54.5,1.46-77.42.39-154.88.33-232.33,0-7.74.12-15.55-.82-23.19-2.3-18.83-11.65-28.67-29.79-30.39-12.59-1.19-25.33-.65-38.01-.92-31.57-.65-41.21-10.9-41.53-44.13-.02-1.83-.01-3.65,0-5.47.28-32.3,10.13-42.96,40.84-43.18,37.62-.25,75.22-.05,112.84-.07h0Z"/>
    <path class="cls-1" d="m1536.53,1257.76c0-57.87-.15-115.75.07-173.62.12-33.74,9.13-43.14,41.55-43.22,75.67-.19,151.36-.21,227.04.01,31.58.09,40.62,9.8,40.97,42.47.05,4.56.07,9.11-.12,13.67-.98,24.42-11.67,36.09-35.25,36.38-44.61.53-89.24.24-133.86.34-6.56,0-13.16-.15-19.67.55-20.84,2.28-31.28,15.17-31.18,37.95.1,22.7,10.65,35.33,31.67,37.51,5.65.58,11.37.46,17.04.49,24.5.09,49-.18,73.49.23,26.07.43,36.67,11.6,37.45,38.38,1.35,46.22-6.16,54.28-50.61,54.38-23.19.06-46.39-.4-69.56.27-32.88.93-48.38,25.88-36.72,58.35,3.43,9.56,10.09,15.7,19.67,18.4,7.71,2.18,15.57,2.22,23.45,2.24,45.06.07,90.12-.14,135.18.22,29.09.23,38.49,10.25,38.97,40.37.12,7.28.24,14.63-.5,21.84-1.83,17.66-11.9,27.96-28.9,29.99-4.33.51-8.74.53-13.1.53-74.81.03-149.62.14-224.42-.03-32.8-.07-42.48-10.13-42.59-44.09-.18-57.87-.05-115.75-.05-173.61h-.03Z"/>
  </g>
  <g>
    <path class="cls-2" d="m1573.74,470.15c5.33,0,9.67,4.47,9.67,10s-4.35,9.94-9.67,9.94-9.74-4.47-9.74-9.94,4.35-10,9.74-10h0Z"/>
    <path class="cls-2" d="m1635.28,445.74c10.72,0,19.47,8.93,19.47,19.94s-8.76,20-19.47,20-19.41-8.93-19.41-20,8.69-19.94,19.41-19.94h0Z"/>
    <path class="cls-2" d="m1584.51,430.2c5.39,0,9.73,4.47,9.73,10s-4.35,9.94-9.73,9.94-9.74-4.47-9.74-9.94,4.35-10,9.74-10h0Z"/>
    <path class="cls-2" d="m1639.62,412.46c5.94,0,10.78,4.97,10.78,11.07s-4.84,11.07-10.78,11.07-10.84-4.97-10.84-11.07,4.84-11.07,10.84-11.07h0Z"/>
  </g>
  <path class="cls-1" d="m1511.97,991.31h2.07c3.78,0,7.27-.22,10.48-.66-5.14.29-9.06.59-12.55.66Zm-82.8-585.32c-11.27-1.17-18.9,5.49-21.82,18.9-3.57,16.7-7.7,33.26-11.13,50.04-1.57,7.62-3.78,16.85,5.35,20.73,9.2,3.88,14.19-4.1,17.9-10.92,9.41-17.36,18.11-35.17,27.24-52.68,9.2-17.73,4.35-26.16-17.54-26.08Z"/>
  <path class="cls-1" d="m1501.42,991.39c3.5.15,6.63.07,10.2-.07-3.42.07-6.78.07-10.2.07Z"/>
  <path class="cls-1" d="m1820.2,658.32c-10.41-19.2-24.61-30.19-41.01-37.44-16.33-7.18-34.95-10.55-54.2-14.29-7.56-1.47-9.41,12.97-1.93,14.58l.21.07c25.6,4.98,51.28,10.04,68.46,23.01,33.45,25.35,37.09,80.89,28.95,124.77-4.06,21.61-10.7,41.1-24.1,55.83-13.62,15.02-33.87,24.84-51.49,28.5-28.74,6.08-51.92-3.22-77.81-17.29,11.05-18.9,15.41-33.26,21.25-55.61,9.91-38.24,13.34-54.29,13.98-93.85.43-26.3,0-39.49-5.78-65.57l-5.99-24.54c-1.5-15.02-26.81-27.99-67.11-36.85-68.39-15.09-171.66-20.22-253.24-13.85-18.54,1.39-35.87,3.44-51.49,6.08-39.58,6.59-65.04,17.88-68.03,32.31-5.56,10.62-10.98,21.76-14.12,45.94-2.21,17.36-3.28,44.55-3.28,69.75,0,17.66.5,34.29,1.64,45.94,2.07,20.73,10.05,56.85,17.9,74.95,4.07,9.45,11.34,21.69,19.25,33.41,7.92,11.8,16.47,23.08,23.18,30.7,8.91,10.11,16.55,16.34,25.53,22.35-11.77,3-31.88,7.84-43,15.09-5.56,3.66-9.34,8.79-9.34,14.21,0,3.37,1.43,6.81,4.71,10.18,2.5,2.49,6.42,5.13,11.7,7.99,23.46,12.82,42.57,18.39,67.68,22.57,19.54,3.15,24.75,5.49,50.85,8.06,21.89,2.12,59.55,4.25,81.3,5.35,7.13.37,12.05.66,16.4.73h.14c3.42,0,6.78,0,10.2-.07h.36c3.5-.07,7.42-.37,12.55-.66h.21c.14-.07.36-.07.57-.07,38.15-2.78,80.94-5.71,117.1-17.73,17.9-6.01,47-20.07,62.69-32.75,21.97-17.66,19.47-39.86-5.85-48.94-20.11-7.18-52.85-1.25-77.23-3.15-7.7-.66-8.49,14.21-.71,14.87,2.35.15,4.78.29,8.42.44,19.47.66,49.49-3.88,66.39,2.2,2.92,1.03,12.19,5.42,12.12,9.08-.14,8.43-17.4,18.83-23.32,22.35-30.38,18.02-55.34,26.74-89.57,31.8-9.77,1.39-26.96,3.37-44.15,4.98,3.14-6.52,4.64-15.02,4.85-25.86.07-3.22.07-6.52,0-9.74-.14-13.41-1.93-23.08-6.21-29.97,16.69-3.96,25.32-7.47,49.64-17.88,22.97-9.67,41.29-15.24,60.12-42.2,12.69,6.96,23.03,12.31,35.09,16.34,28.17,9.38,56.13,7.18,83.87-8.21,30.88-17.22,46-43.08,53.56-83.82,6.99-37.58,6.06-81.18-11.91-114.07Zm-198.54-84.04c35.44,7.84,57.55,16.19,57.41,23.59-.29,7.18-22.47,14.58-58.12,20.44-20.61,3.52-44.36,5.86-69.75,7.25,2.71-5.42,4.21-12.09,4.71-20.07.14-3.3.14-6.52.21-9.74.07-14.29-1.07-24.69-4.28-32.24,25.39,2.64,49.21,6.23,69.82,10.77Zm-20.75,299.8s-.07.07-.29.15c-.07,0-.21.07-.29.15-.21.07-.36.15-.57.22-32.56,12.41-52.92,19.27-60.81,21.09-12.88,2.98-54.78,3.15-57.26,3.16-26.24.1-55.17-1.57-76.68-3.11-9.36-.54-25.94-1.51-25.94-1.51-7.63,0-20.29-.95-27.85-2.12-11.98-1.83-19.11-9.74-22.82-21.17-8.91-27.47,1.43-48.06,25.74-53.34,3.57-.81,7.42-1.25,11.55-1.32h.78c29.95-.66,60.05.15,90-.66,25.46-.66,35.73-11.8,37.08-37.95.07-1.68.14-3.22.14-4.76,5.99.51,11.91,1.25,17.76,2.2,30.88,5.2,46.43,12.38,71.96,29.16,21.39,13.92,42.08,25.06,64.83,37.59-13.83,18.32-27.74,24.1-47.35,32.24Zm55.27-44.11c-18.33-10.04-39.08-21.17-56.63-32.09-17.11-10.7-29.45-20.44-50.06-27.99-16.69-6.23-36.66-10.33-55.91-12.02-2-28.79-15.19-36.49-51.99-36.56-26.24-.07-52.42,0-78.66-.37-14.33-.15-27.03-4.32-33.45-19.05-13.12-30.33,3.21-57.66,35.23-58.39,27.1-.59,54.2-.15,81.3-.22,24.39-.07,48.85.37,73.17-.44,4.56-.15,8.7-.73,12.41-1.68,58.05-1.83,126.44-8.79,150.83-28.72,7.63,30.4,8.84,42.27,8.34,73.78-.57,37.95-3.85,52.82-13.48,89.6-5.78,22.42-9.77,35.68-21.11,54.14Z"/>
</svg>