<?xml version="1.0" encoding="UTF-8"?>
<svg id="Layer_2" data-name="Layer 2" xmlns="http://www.w3.org/2000/svg" viewBox="0 0 85.45 85.45">
  <defs>
    <style>
      .cls-1 {
        fill: #29286b;
      }

      .cls-2 {
        stroke-linecap: round;
        stroke-linejoin: round;
      }

      .cls-2, .cls-3 {
        fill: none;
        stroke: #29286b;
      }

      .cls-3 {
        stroke-miterlimit: 10;
        stroke-width: 2px;
      }
    </style>
  </defs>
  <g id="Layer_1-2" data-name="Layer 1">
    <g>
      <path class="cls-2" d="M19.88,64.31l18.73.35v-11.68s-.2-1.6-.85-2.84c-.52-.99-1.9-1.13-2.6-.26-1.28,1.59-4.2,4.11-9.19,2.8-7.05-1.85-8.19-6.99-8.19-6.99,0,0,3.55-6.28,8.89-6.41s7.05-.89,9.01,3.43c0,0-6.09,3.3-9.84-4.44,0,0-1.9-5.59-.83-10.22h6.6s5.35.91,8.22,5.66c.27.44.41.95.41,1.46v4.11s-2.67-.02-4.89-4.83,6.94-13.64,7.36-13.64"/>
      <path class="cls-2" d="M65.56,64.31l-18.73.35v-11.68s.2-1.6.85-2.84c.52-.99,1.9-1.13,2.6-.26,1.28,1.59,4.2,4.11,9.19,2.8,7.05-1.85,8.19-6.99,8.19-6.99,0,0-3.55-6.28-8.89-6.41s-7.05-.89-9.01,3.43c0,0,6.09,3.3,9.84-4.44,0,0,1.9-5.59.83-10.22h-6.6s-5.35.91-8.22,5.66c-.27.44-.41.95-.41,1.46v4.11s2.67-.02,4.89-4.83-6.94-13.64-7.36-13.64"/>
      <circle class="cls-3" cx="42.72" cy="42.72" r="41.72"/>
      <g>
        <path class="cls-1" d="M29.85,16.22c-.68-1.8-1.02-2.71-1.7-4.51-.24.4-.36.61-.59,1.01-.13.24-.37.31-.63.22-.12-.04-.18-.06-.3-.1.51-.99.79-1.48,1.39-2.45.23-.08.34-.13.57-.21.86,2.46,1.29,3.69,2.15,6.15-.16.05-.24.08-.39.14-.23.08-.41-.01-.5-.26Z"/>
        <path class="cls-1" d="M31.94,12.56c-.53-1.92.49-3.68,2.53-4.05,1.98-.36,3.59.95,3.77,2.9.16,1.74-.78,3.44-2.56,3.77-1.81.33-3.27-.91-3.74-2.61ZM35.56,14.53c1.04-.19,1.98-1.29,1.78-3.03-.16-1.33-1.22-2.62-2.76-2.34-1.15.21-2.23,1.37-1.78,3.17.32,1.27,1.37,2.45,2.76,2.2Z"/>
        <path class="cls-1" d="M39.98,11.29c-.09-1.99,1.29-3.48,3.35-3.38,2.01.09,3.29,1.73,3.03,3.67-.23,1.73-1.53,3.18-3.33,3.1-1.83-.08-2.97-1.62-3.05-3.39ZM43.06,14.02c1.06.05,2.21-.81,2.4-2.55.15-1.33-.61-2.82-2.16-2.89-1.16-.05-2.46.84-2.43,2.69.02,1.31.78,2.69,2.18,2.76Z"/>
        <path class="cls-1" d="M50.36,8.92c1.02.23,1.6,1.13,1.34,2.07-.26.92-1.17,1.4-2.08,1.19-.97-.22-1.53-1.03-1.36-1.98.17-.96,1.05-1.53,2.11-1.28ZM49.75,11.59c.62.14.98-.31,1.11-.83.12-.48.07-1.09-.63-1.25-.68-.16-1.06.35-1.15.84-.11.52.02,1.09.68,1.24ZM55.16,10.41c.18.07.27.1.46.17-2.52,1.7-3.66,2.66-5.7,4.7-.16.17-.34.21-.57.16-.16-.04-.24-.06-.39-.09,1.96-2.1,3.07-3.09,5.53-4.87.2-.15.42-.16.68-.07ZM54.31,13.58c.91.34,1.3,1.29.91,2.18-.38.87-1.3,1.27-2.1.96-.85-.32-1.24-1.19-.94-2.11.3-.92,1.19-1.39,2.13-1.03ZM53.34,16.15c.55.21.95-.2,1.15-.7.19-.46.23-1.05-.4-1.29-.6-.23-1.02.23-1.18.7-.18.5-.15,1.07.43,1.29Z"/>
      </g>
      <g>
        <path class="cls-1" d="M24.82,70.25c.08.03.12.04.2.07.93,1.91,1.45,2.86,2.58,4.73.34-1.36.51-2.04.86-3.4.05-.2.21-.29.41-.24.11.03.17.04.28.07-.48,1.99-.72,2.99-1.2,4.98-.09-.02-.14-.03-.23-.06-1.18-1.87-1.71-2.82-2.68-4.74-.42,1.34-.63,2.01-1.05,3.35-.06.2-.23.28-.46.21-.12-.04-.18-.06-.3-.1.63-1.95.95-2.92,1.58-4.87Z"/>
        <path class="cls-1" d="M32.78,72.23c.08.01.12.02.2.03.66,2.19,1.03,3.28,1.87,5.45-.18-.02-.27-.03-.44-.06-.19-.03-.33-.13-.39-.29-.12-.34-.18-.5-.3-.84-1.23-.18-1.84-.29-3.06-.53-.22.28-.34.42-.56.69-.11.13-.28.19-.47.15-.18-.04-.26-.06-.44-.09,1.52-1.76,2.24-2.67,3.59-4.51ZM33.55,76c-.36-1.09-.53-1.63-.85-2.72-.66.92-1,1.38-1.7,2.28,1.02.2,1.53.29,2.55.44Z"/>
        <path class="cls-1" d="M36.89,73.32c-.63-.06-.95-.1-1.58-.18,0-.08.01-.12.02-.19.03-.2.17-.31.37-.28,1.38.17,2.07.23,3.45.32,0,.08,0,.12-.01.2-.01.2-.14.32-.36.31-.51-.03-.76-.05-1.27-.1-.15,1.7-.23,2.55-.38,4.25-.02.2-.16.32-.39.29-.13-.01-.19-.02-.32-.03.18-1.83.27-2.74.46-4.57Z"/>
        <path class="cls-1" d="M40.13,76.13c.05-1.24.08-1.86.13-3.09.12,0,.17,0,.29.01.21,0,.33.14.32.34-.03,1.09-.05,1.64-.09,2.73-.04,1.3.99,1.66,1.63,1.66.61,0,1.66-.34,1.64-1.64-.02-1.09-.03-1.64-.06-2.73,0-.2.11-.33.33-.34.11,0,.17,0,.28,0,.04,1.24.06,1.86.1,3.1.04,1.29-.85,2.16-2.28,2.15-1.43,0-2.34-.89-2.28-2.17Z"/>
        <path class="cls-1" d="M46.32,72.98c.92-.06,1.38-.1,2.3-.19.99-.1,1.78.5,1.91,1.48.11.81-.3,1.51-1.2,1.75.64.67.97,1,1.65,1.65-.21.03-.32.04-.53.07-.18.02-.32-.02-.45-.14-.56-.57-.84-.86-1.38-1.44-.57.06-.86.08-1.44.12.04.57.06.86.1,1.44.02.21-.11.35-.35.36-.12,0-.18.01-.31.02-.13-2.04-.19-3.07-.32-5.11ZM48.81,75.61c.57-.06,1.17-.48,1.08-1.27-.05-.43-.37-1.12-1.31-1.02-.64.06-.96.09-1.6.14.07.92.1,1.38.17,2.29.67-.05,1-.08,1.66-.14Z"/>
        <path class="cls-1" d="M53.59,72.06c.08-.02.12-.02.2-.04,1.39,1.82,2.13,2.7,3.69,4.44-.18.04-.26.06-.44.1-.19.04-.35,0-.47-.14-.23-.27-.35-.41-.58-.68-1.22.27-1.83.38-3.05.59-.11.34-.17.51-.28.85-.06.17-.19.27-.38.3-.18.03-.27.04-.44.07.8-2.19,1.15-3.29,1.76-5.49ZM55.65,75.31c-.72-.89-1.08-1.34-1.76-2.25-.29,1.1-.45,1.64-.79,2.74,1.02-.17,1.53-.27,2.55-.49Z"/>
        <path class="cls-1" d="M57.4,71.2c.11-.03.17-.04.28-.07.21-.06.36.03.41.23.45,1.65.68,2.47,1.13,4.11.99-.27,1.49-.42,2.48-.73.21-.07.39,0,.45.2.02.07.04.11.06.19-1.39.45-2.1.66-3.51,1.03-.52-1.98-.78-2.97-1.3-4.95Z"/>
      </g>
    </g>
  </g>
</svg>