<?xml version="1.0" encoding="UTF-8"?>
<svg id="Layer_2" data-name="Layer 2" xmlns="http://www.w3.org/2000/svg" viewBox="0 0 86.22 86.22">
  <defs>
    <style>
      .cls-1 {
        fill: #29286b;
      }

      .cls-2, .cls-3, .cls-4 {
        fill: none;
        stroke: #29286b;
      }

      .cls-2, .cls-4 {
        stroke-miterlimit: 10;
      }

      .cls-3 {
        stroke-linecap: round;
        stroke-linejoin: round;
      }

      .cls-4 {
        stroke-width: 2px;
      }
    </style>
  </defs>
  <g id="Layer_1-2" data-name="Layer 1">
    <g>
      <g>
        <path class="cls-1" d="M29.87,8.89c.16-.03.25-.04.41-.07.18-.03.32.02.41.17.85,1.24,1.25,1.87,2.04,3.13.41-1.44.63-2.15,1.1-3.59.05-.16.17-.25.35-.27.15-.02.23-.03.39-.04-.7,1.98-1.02,2.97-1.6,4.97-.07,0-.1.01-.17.02-1.12-1.75-1.7-2.61-2.93-4.32Z"/>
        <path class="cls-1" d="M35.69,8.1c1.37-.13,2.06-.18,3.43-.26,0,.07,0,.11,0,.19.01.19-.09.3-.31.31-1,.06-1.49.09-2.49.18.06.67.09,1,.15,1.67.86-.08,1.29-.11,2.16-.16,0,.07,0,.11.01.18.01.2-.09.31-.3.32-.73.05-1.1.07-1.83.14.06.64.08.96.14,1.6.95-.08,1.42-.12,2.37-.17.19-.01.31.1.32.29,0,.07,0,.11,0,.18-1.29.07-1.94.11-3.22.24-.18-1.88-.27-2.82-.45-4.71Z"/>
        <path class="cls-1" d="M45.05,10.36c-.09,1.2-.95,2.2-2.41,2.21-1.39,0-2.47-1.05-2.52-2.4-.05-1.36,1.06-2.51,2.49-2.52.81,0,1.53.35,1.98.92-.09.05-.14.07-.24.12-.16.09-.3.07-.44-.06-.35-.31-.81-.49-1.3-.49-1.09,0-1.94.94-1.9,2,.03,1.05.84,1.92,1.92,1.92,1,0,1.78-.63,1.82-1.51-.65-.01-.97-.01-1.62-.01-.2,0-.31-.11-.31-.3,0-.08,0-.12,0-.2,1.01,0,1.52,0,2.53.02.01.1,0,.21,0,.29Z"/>
        <path class="cls-1" d="M48.26,7.92c.08,0,.12,0,.19.01.85,1.95,1.25,2.94,1.98,4.91-.15-.02-.22-.02-.37-.04-.16-.02-.28-.1-.34-.25-.11-.3-.17-.46-.29-.76-1.07-.09-1.61-.13-2.68-.18-.16.28-.23.43-.39.71-.08.14-.2.21-.37.2-.15,0-.23,0-.38-.01.99-1.86,1.52-2.78,2.63-4.6ZM49.27,11.32c-.38-.98-.57-1.47-.98-2.44-.53.91-.79,1.37-1.29,2.28.91.05,1.36.08,2.27.15Z"/>
        <path class="cls-1" d="M52.03,8.26c.08,0,.12.01.21.02,1.24,1.58,1.83,2.38,2.93,4,.21-1.28.32-1.91.53-3.19.03-.19.17-.29.37-.25.11.02.17.03.28.05-.32,1.86-.49,2.79-.81,4.66-.08-.01-.12-.02-.2-.03-1.07-1.63-1.64-2.43-2.85-4.01-.16,1.29-.24,1.93-.4,3.22-.02.19-.15.29-.35.27-.1-.01-.15-.02-.26-.03.22-1.88.33-2.82.55-4.7Z"/>
      </g>
      <g>
        <path class="cls-1" d="M25.22,69.46c.7.39,1.06.57,1.78.92,1.21.58,1.49,1.47,1.14,2.31-.35.84-1.27,1.22-2.49.63-.56-.27-.84-.41-1.4-.71-.23.44-.35.67-.59,1.11-.09.17-.27.21-.48.1-.11-.06-.17-.09-.28-.15.93-1.69,1.39-2.53,2.32-4.21ZM25.87,72.88c.82.39,1.45.11,1.69-.45.24-.56.04-1.23-.74-1.61-.52-.25-.77-.38-1.28-.65-.42.8-.63,1.2-1.06,2,.55.29.83.43,1.39.7Z"/>
        <path class="cls-1" d="M29.97,71.65c.84.32,1.26.46,2.12.73.92.29,1.41,1.09,1.18,1.99-.2.74-.82,1.21-1.74,1.07.34.82.52,1.23.92,2.05-.21-.05-.31-.08-.52-.14-.17-.05-.29-.14-.36-.29-.31-.71-.46-1.06-.73-1.77-.55-.17-.82-.27-1.36-.46-.18.51-.28.76-.46,1.27-.07.19-.24.25-.46.17-.12-.04-.18-.07-.29-.11.68-1.8,1.02-2.7,1.7-4.5ZM31.21,74.88c.54.17,1.25.03,1.45-.69.11-.39.08-1.1-.8-1.37-.6-.19-.89-.29-1.48-.5-.29.81-.44,1.22-.73,2.03.62.22.94.33,1.57.53Z"/>
        <path class="cls-1" d="M34.32,75.46c.31-1.34,1.59-2.19,3.06-1.96,1.48.23,2.44,1.43,2.32,2.8-.12,1.37-1.42,2.41-3.1,2.14-1.67-.26-2.59-1.64-2.29-2.99ZM36.68,77.96c1.22.19,2.27-.63,2.39-1.71.11-1.07-.66-2.07-1.77-2.25-1.09-.17-2.13.55-2.35,1.6-.22,1.06.52,2.17,1.73,2.35Z"/>
        <path class="cls-1" d="M41.32,74.01c.76.04,1.14.05,1.9.04,1.47,0,2.52.71,2.63,2.31.11,1.59-.95,2.5-2.62,2.5-.86,0-1.29,0-2.15-.05.09-1.92.14-2.88.23-4.8ZM43.15,78.36c.81,0,2.15-.33,2.07-1.96-.09-1.63-1.34-1.86-2.07-1.86-.49,0-.74,0-1.23-.02-.05,1.53-.07,2.29-.12,3.82.54.02.82.02,1.36.02Z"/>
        <path class="cls-1" d="M47.41,76.73c-.12-1.16-.19-1.74-.31-2.89.11-.01.17-.02.28-.03.2-.02.33.08.36.27.13,1.02.19,1.52.32,2.54.15,1.21,1.22,1.38,1.84,1.28.6-.1,1.58-.61,1.33-1.8-.21-1-.31-1.5-.52-2.51-.04-.19.05-.33.25-.37.1-.02.16-.03.26-.06.25,1.14.38,1.7.64,2.84.26,1.18-.46,2.16-1.88,2.39-1.41.23-2.43-.46-2.56-1.66Z"/>
        <path class="cls-1" d="M53.22,75.15c-.35-1.34.36-2.66,1.82-3.16.96-.33,1.69-.19,2.34.23-.08.09-.12.13-.2.22-.13.15-.27.14-.44.07-.45-.19-.96-.23-1.53-.04-1.17.4-1.65,1.47-1.35,2.51.29,1.04,1.34,1.7,2.65,1.26.73-.25,1.04-.59,1.26-1.04.09-.16.2-.25.41-.25.13,0,.19,0,.32,0-.19.74-.64,1.37-1.85,1.78-1.66.56-3.07-.23-3.43-1.57Z"/>
        <path class="cls-1" d="M59.26,70.9c-.57.27-.85.4-1.43.64-.03-.07-.04-.1-.07-.17-.07-.17,0-.33.18-.41,1.24-.54,1.86-.84,3.06-1.5.04.06.05.1.09.16.09.17.04.33-.15.43-.45.24-.67.36-1.12.58.71,1.44,1.07,2.15,1.78,3.59.08.17.02.34-.2.44-.12.06-.17.08-.29.14-.74-1.56-1.11-2.34-1.85-3.9Z"/>
      </g>
      <path class="cls-3" d="M49.95,28.91c.12-3.39,2.89-5.05,2.08-8.94-.19-.91,6.34,4.1,6.95,8.68.44,3.35-1.97,6.36-4.53,6.16-2.56-.2-4.63-2.51-4.51-5.9Z"/>
      <path class="cls-3" d="M54.82,26.49c.55,3.75.18,6.97-1.49,10.37"/>
      <circle class="cls-4" cx="43.11" cy="43.11" r="42.11"/>
      <polyline class="cls-2" points="53.92 35.52 40.92 65.61 27.19 34.3"/>
      <line class="cls-3" x1="52.74" y1="28.59" x2="55.01" y2="30.88"/>
      <line class="cls-3" x1="57.11" y1="28.3" x2="55.01" y2="30.88"/>
    </g>
  </g>
</svg>