<?xml version="1.0" encoding="UTF-8"?>
<svg id="Layer_2" data-name="Layer 2" xmlns="http://www.w3.org/2000/svg" viewBox="0 0 86.22 86.22">
  <defs>
    <style>
      .cls-1 {
        fill: #29286b;
      }

      .cls-2 {
        stroke-linecap: round;
      }

      .cls-2, .cls-3 {
        fill: none;
        stroke: #29286b;
        stroke-miterlimit: 10;
        stroke-width: 2px;
      }
    </style>
  </defs>
  <g id="Layer_1-2" data-name="Layer 1">
    <g>
      <circle class="cls-3" cx="43.11" cy="43.11" r="42.11"/>
      <g>
        <path class="cls-1" d="M34.76,7.65c.13-.04.2-.05.34-.09.25-.06.42.02.47.22.41,1.66.62,2.49,1.03,4.15.94-.23,1.42-.33,2.37-.48.21-.03.35.07.38.28.01.08.02.12.03.19-1.32.19-1.97.32-3.26.68-.54-1.98-.81-2.97-1.35-4.95Z"/>
        <path class="cls-1" d="M42.32,6.54c.09,0,.14,0,.24,0,1.24,2.03,1.76,3.08,2.61,5.2-.16-.01-.25-.02-.41-.03-.18-.01-.31-.1-.38-.26-.14-.32-.21-.48-.36-.81-1.2-.04-1.8-.03-2.99.06-.13.33-.2.49-.32.82-.06.16-.19.26-.37.28-.16.02-.24.03-.41.05.76-2.16,1.24-3.23,2.39-5.31ZM43.8,10.14c-.49-1.04-.76-1.55-1.34-2.56-.54,1.03-.78,1.56-1.22,2.61,1.02-.07,1.54-.08,2.56-.05Z"/>
        <path class="cls-1" d="M46.93,6.76c1.02.12,1.52.21,2.53.41,1.03.21,1.63.8,1.4,1.69-.15.57-.64.9-1.07.89,0,0,0,0,0,0,.49.16.89.75.7,1.45-.27,1-1.14,1.17-1.96,1-.88-.18-1.32-.26-2.21-.36.25-2.04.37-3.05.62-5.09ZM48.93,9.37c.7.14,1.11-.19,1.23-.67.11-.45-.22-.9-.81-1.02-.7-.14-1.05-.2-1.76-.31-.1.69-.15,1.03-.25,1.72.64.09.95.15,1.59.28ZM48.61,11.7c.65.14,1.11-.18,1.24-.68.15-.62-.23-.99-.95-1.14-.65-.13-.97-.19-1.63-.28-.11.73-.16,1.09-.27,1.82.65.09.97.15,1.61.28Z"/>
      </g>
      <g>
        <path class="cls-1" d="M29.58,72.39c-.71-.21-1.06-.33-1.76-.57.03-.08.04-.13.07-.21.08-.22.26-.31.49-.23,1.52.51,2.29.73,3.85,1.11-.02.09-.03.13-.05.22-.05.22-.23.33-.47.27-.57-.14-.86-.22-1.43-.38-.53,1.88-.8,2.81-1.34,4.69-.06.22-.25.32-.52.24-.15-.04-.22-.06-.36-.11.6-2.01.91-3.02,1.51-5.03Z"/>
        <path class="cls-1" d="M33.47,72.78c1.59.34,2.39.48,4,.69-.01.09-.02.14-.03.23-.03.24-.18.35-.43.31-1.19-.16-1.78-.26-2.95-.5-.16.81-.24,1.22-.41,2.03,1.09.22,1.63.31,2.73.47-.01.09-.02.13-.03.22-.04.24-.2.35-.46.31-.95-.14-1.42-.23-2.36-.42-.16.78-.23,1.17-.39,1.94,1.29.26,1.94.37,3.23.55.26.04.4.2.37.43-.01.09-.02.13-.03.22-1.8-.23-2.7-.39-4.48-.78.49-2.29.74-3.43,1.24-5.72Z"/>
        <path class="cls-1" d="M37.8,78.77c.07-.08.11-.12.19-.2.16-.18.37-.18.59-.04.51.32,1.12.56,1.8.6,1.06.07,1.66-.35,1.68-.99.02-.76-.82-.96-1.73-1.18-.72-.18-2.31-.5-2.17-1.79.14-1.29,1.39-1.57,2.33-1.51.83.06,1.46.33,1.98.71-.06.08-.09.13-.15.21-.14.19-.33.21-.54.1-.45-.24-.88-.38-1.38-.41-.57-.04-1.42.11-1.5.94-.08.8,1.12,1.02,1.89,1.2.82.19,2.06.46,2.04,1.74-.02,1.13-1.02,1.68-2.46,1.59-1.18-.07-1.96-.46-2.57-.97Z"/>
        <path class="cls-1" d="M45.23,74.45c-.73.02-1.1.03-1.83.02,0-.09,0-.13,0-.22,0-.23.15-.37.38-.37,1.59,0,2.38-.03,3.96-.17,0,.09.01.13.02.22.02.23-.11.39-.35.41-.58.04-.88.06-1.46.09.09,1.95.13,2.92.22,4.87.01.23-.14.38-.41.39-.15,0-.22,0-.37.01-.06-2.1-.1-3.15-.16-5.25Z"/>
        <path class="cls-1" d="M49.01,73.59c1.61-.18,2.41-.3,4.01-.61.02.09.03.14.04.23.05.24-.06.39-.31.43-1.18.22-1.77.31-2.96.46.1.82.15,1.23.26,2.05,1.1-.14,1.65-.22,2.74-.42.02.09.02.13.04.22.04.24-.08.4-.34.44-.94.16-1.42.23-2.37.35.1.79.15,1.18.24,1.97,1.3-.16,1.95-.26,3.24-.5.26-.05.45.06.49.29.02.09.03.13.04.22-1.79.35-2.69.48-4.49.68-.25-2.33-.38-3.49-.64-5.82Z"/>
        <path class="cls-1" d="M54.41,72.69c.89-.2,1.33-.31,2.21-.55,1.71-.47,3.16.05,3.79,1.89.63,1.83-.31,3.23-2.24,3.75-.99.27-1.48.4-2.48.62-.51-2.28-.77-3.43-1.29-5.71ZM57.91,77.23c.93-.25,2.38-1.06,1.77-2.95-.62-1.89-2.15-1.77-2.99-1.54-.57.16-.86.23-1.44.37.44,1.81.65,2.71,1.09,4.52.63-.15.95-.23,1.57-.4Z"/>
      </g>
      <line class="cls-2" x1="34.84" y1="19.45" x2="51.38" y2="19.45"/>
      <path class="cls-2" d="M59.55,59.04c0,3.47-2.81,6.28-6.28,6.28h-20.96c-3.45,0-6.24-2.79-6.24-6.24,3.67-9.95,7.34-19.89,11-29.83v-9.81h12.07v9.81c3.47,9.93,6.93,19.86,10.4,29.79Z"/>
    </g>
  </g>
</svg>