<?xml version="1.0" encoding="UTF-8"?>
<svg id="Layer_2" data-name="Layer 2" xmlns="http://www.w3.org/2000/svg" viewBox="0 0 86.22 86.22">
  <defs>
    <style>
      .cls-1 {
        fill: #29286b;
      }

      .cls-2 {
        stroke-linecap: round;
        stroke-linejoin: round;
      }

      .cls-2, .cls-3 {
        fill: none;
        stroke: #29286b;
      }

      .cls-3 {
        stroke-miterlimit: 10;
        stroke-width: 2px;
      }
    </style>
  </defs>
  <g id="Layer_1-2" data-name="Layer 1">
    <g>
      <path class="cls-2" d="M55.75,61.05c-2.11,3.14-7.06,7.24-13.09,7.07-5.7-.16-10.11-4.07-12.03-6.86-5.75-8.37-1.15-24.29,12.03-39.06,13.8,14.51,18.69,30.5,13.09,38.85Z"/>
      <path class="cls-2" d="M43.11,45.58c-4.21,0-7.62,3.41-7.62,7.62s3.41,7.62,7.62,7.62c3.13,0,5.81-1.88,6.99-4.57M39.68,53.58l2.29,2.29,4.57-4.57M50.73,53.2c0-3.13-1.88-5.81-4.57-6.99"/>
      <circle class="cls-3" cx="43.11" cy="43.11" r="42.11"/>
      <g>
        <path class="cls-1" d="M31.29,72.42c-.47-.28-.71-.43-1.16-.74.04-.05.05-.08.09-.13.09-.13.24-.15.39-.06,1,.66,1.51.95,2.57,1.47-.03.06-.04.08-.07.14-.07.15-.21.19-.37.11-.39-.2-.58-.3-.97-.52-.67,1.19-1,1.78-1.67,2.97-.08.14-.23.17-.42.06-.1-.06-.15-.09-.25-.15.75-1.26,1.13-1.89,1.88-3.15Z"/>
        <path class="cls-1" d="M34.71,73.64c1.1.44,1.67.62,2.81.91-.02.06-.02.09-.04.16-.04.16-.16.23-.34.18-.84-.23-1.26-.36-2.09-.67-.2.54-.3.81-.51,1.36.78.29,1.17.42,1.97.64-.02.06-.03.09-.04.15-.05.17-.18.22-.37.17-.69-.2-1.03-.31-1.71-.57-.19.52-.29.78-.48,1.3.94.35,1.42.5,2.38.76.19.05.29.18.25.34-.02.06-.02.09-.04.15-1.35-.34-2.01-.56-3.31-1.08.61-1.52.91-2.28,1.52-3.8Z"/>
        <path class="cls-1" d="M38.2,78.45c.06-.05.09-.07.15-.13.13-.12.29-.1.45,0,.37.25.83.45,1.34.51.8.09,1.27-.18,1.3-.64.03-.53-.59-.69-1.26-.88-.53-.15-1.7-.47-1.53-1.36.17-.89,1.08-1.02,1.76-.93.6.07,1.04.28,1.42.56-.05.06-.07.09-.12.14-.1.13-.25.14-.4.06-.32-.18-.63-.29-.99-.33-.41-.05-1.04.01-1.13.59-.09.55.78.77,1.35.92.6.17,1.52.38,1.48,1.27-.03.79-.81,1.16-1.9,1.03-.9-.1-1.47-.42-1.91-.81Z"/>
        <path class="cls-1" d="M44.57,75.63c-.53.03-.8.04-1.33.05,0-.06,0-.09,0-.16,0-.16.1-.26.27-.27,1.15-.02,1.72-.07,2.85-.23,0,.06.01.09.02.15.02.16-.06.28-.24.3-.42.06-.63.08-1.06.12.12,1.36.18,2.04.29,3.39.01.16-.09.27-.3.29-.11,0-.17.01-.28.02-.09-1.46-.14-2.2-.23-3.66Z"/>
        <path class="cls-1" d="M48,74.72c1.15-.25,1.72-.42,2.83-.82.02.06.03.09.06.15.06.16,0,.27-.18.34-.83.29-1.25.41-2.1.62.14.56.21.84.34,1.4.8-.2,1.2-.31,1.98-.57.02.06.03.09.05.15.05.16-.02.28-.21.34-.68.22-1.03.32-1.72.49.13.54.2.81.33,1.34.97-.24,1.45-.38,2.39-.71.19-.07.34-.01.4.14.02.06.03.09.05.15-1.32.48-1.99.67-3.34.97-.35-1.6-.53-2.39-.88-3.99Z"/>
        <path class="cls-1" d="M52.48,73.23c.61-.28.91-.43,1.5-.75,1.15-.63,2.26-.58,3.03.54.76,1.12.29,2.31-1.07,3.05-.7.38-1.05.56-1.77.89-.68-1.49-1.01-2.23-1.69-3.72ZM55.66,75.74c.65-.35,1.6-1.22.85-2.39-.75-1.17-1.83-.78-2.4-.47-.39.21-.58.31-.98.5.56,1.17.85,1.76,1.41,2.93.45-.22.67-.33,1.12-.57Z"/>
      </g>
      <g>
        <path class="cls-1" d="M6.54,42.5c.08-1.32.15-1.97.32-3.22.33-2.43,1.39-3.77,2.71-3.42,1.31.35,1.63,1.86,1.33,4.03-.15,1.12-.21,1.69-.28,2.86-1.63-.1-2.45-.15-4.08-.26ZM10.47,39.95c.14-1.08.25-2.88-1.1-3.2-1.36-.32-1.96,1.55-2.12,2.72-.11.8-.15,1.21-.22,2.03,1.29.12,1.94.18,3.24.3.06-.75.1-1.12.2-1.85Z"/>
        <path class="cls-1" d="M8.15,33.23c.6-2.01.96-2.97,1.79-4.78.06.03.09.04.15.07.15.07.17.26.04.54-.58,1.32-.84,2.01-1.3,3.43.55.2.82.29,1.37.49.39-1.21.61-1.8,1.1-2.94.06.03.09.04.14.07.16.07.18.26.07.52-.4.97-.58,1.46-.91,2.49.52.19.79.28,1.31.47.42-1.3.66-1.92,1.19-3.12.11-.24.26-.34.41-.27.06.03.08.04.14.07-.74,1.61-1.06,2.46-1.59,4.25-1.56-.52-2.34-.77-3.9-1.29Z"/>
        <path class="cls-1" d="M10.67,26.92c.59-1.14.91-1.68,1.58-2.74.73-1.13,1.75-1.53,2.38-1.04.53.4.58,1.17.07,2.15.86-.22,1.29-.32,2.14-.47-.14.19-.21.28-.34.47-.11.16-.24.25-.4.29-.73.15-1.09.24-1.82.45-.36.58-.54.88-.87,1.49.4.23.6.35,1.01.58.15.09.16.27.04.5-.07.12-.1.19-.16.31-1.45-.8-2.17-1.2-3.62-1.99ZM14.09,25.55c.37-.59.6-1.39.07-1.76-.28-.21-.95-.32-1.62.74-.46.72-.68,1.09-1.09,1.85l1.61.93c.4-.72.6-1.07,1.04-1.75Z"/>
        <path class="cls-1" d="M14.82,20.71c.07-.08.1-.12.18-.21,1.57-.33,2.34-.43,3.87-.55.16-1.51.29-2.28.64-3.81.08-.07.12-.1.21-.16,1.04,1.29,1.56,1.93,2.61,3.21-.1.08-.15.12-.24.19-.2.16-.39.17-.5.04-.7-.82-1.05-1.23-1.75-2.06-.24,1.26-.33,1.88-.44,3.12-1.25.08-1.88.15-3.16.37.8.72,1.2,1.07,2.01,1.79.13.12.11.3-.06.49-.08.1-.13.15-.21.25-1.26-1.07-1.89-1.61-3.16-2.69Z"/>
        <path class="cls-1" d="M23.62,13.32c.09-.05.13-.08.22-.13,1.98.76,2.92,1.21,4.7,2.2-.17.08-.25.12-.42.2-.18.09-.35.09-.49.03-.28-.15-.42-.22-.7-.36-1.2.62-1.78.95-2.91,1.69,0,.31,0,.46,0,.77,0,.15-.09.29-.26.41-.15.11-.23.16-.38.27-.05-2,0-3.02.24-5.08ZM26.51,15.03c-.91-.45-1.38-.66-2.33-1.06-.09,1.01-.12,1.51-.14,2.5.97-.62,1.46-.91,2.48-1.44Z"/>
        <path class="cls-1" d="M28.61,11.35c-.74.3-1.1.46-1.82.79-.03-.06-.04-.08-.07-.14-.07-.15.03-.31.27-.42,1.61-.73,2.44-1.05,4.12-1.58.02.06.03.09.05.15.05.15-.06.3-.31.38-.61.2-.91.31-1.5.53.52,1.27.78,1.9,1.29,3.17.06.15-.03.29-.25.38-.12.05-.18.07-.31.12-.59-1.35-.88-2.03-1.47-3.39Z"/>
        <path class="cls-1" d="M32.52,11.71c-.36-1.12.7-2.46,2.65-2.85,1.96-.4,3.5.42,3.64,1.58.15,1.16-.99,2.23-2.72,2.58-1.72.35-3.21-.19-3.57-1.31ZM36,12.61c1.29-.26,2.2-1.16,2.06-2.07-.13-.91-1.37-1.55-2.8-1.26-1.41.28-2.27,1.35-2.01,2.23.26.89,1.47,1.36,2.74,1.11Z"/>
        <path class="cls-1" d="M40.44,8.25c.15,0,.22-.01.37-.02.27-.02.43.08.44.24.07,1.36.1,2.04.17,3.4,1.09-.05,1.64-.06,2.73-.02.24,0,.38.11.37.28,0,.06,0,.09,0,.16-1.51-.06-2.27-.05-3.78.05-.12-1.63-.18-2.45-.3-4.08Z"/>
        <path class="cls-1" d="M45.31,10.27c.07-1.17,1.56-2.07,3.52-1.78,1.98.28,3.12,1.56,2.83,2.7-.29,1.14-1.75,1.76-3.5,1.51-1.73-.25-2.93-1.25-2.86-2.42ZM48.24,12.27c1.31.19,2.49-.35,2.69-1.25.21-.89-.72-1.91-2.16-2.11-1.42-.2-2.61.5-2.69,1.42-.08.92.87,1.77,2.16,1.95Z"/>
        <path class="cls-1" d="M58.9,13.91c-.53.88-1.87,1.23-3.57.6-1.62-.6-2.58-1.84-2.24-2.96.34-1.13,2.08-1.66,3.84-1,.99.37,1.75,1.03,2.08,1.71-.13,0-.19-.01-.32-.02-.23-.01-.38-.1-.51-.27-.31-.42-.8-.79-1.41-1.02-1.34-.5-2.67-.07-2.96.81-.28.87.41,1.87,1.68,2.35,1.16.44,2.28.34,2.64-.34-.75-.34-1.13-.5-1.9-.79-.24-.09-.33-.23-.27-.38.03-.06.04-.1.06-.16,1.21.45,1.81.7,2.97,1.26-.02.08-.07.17-.11.23Z"/>
        <path class="cls-1" d="M59.69,16.1c.77-1.33,1.15-2,1.93-3.33.13.07.2.11.32.18.23.13.32.3.23.44-.8,1.32-1.2,1.98-2,3.3-.12-.07-.18-.11-.31-.17-.19-.11-.26-.26-.17-.41Z"/>
        <path class="cls-1" d="M62.84,15.9c.67-.98,2.38-1.06,3.98.22,1.05.84,1.45,1.69,1.48,2.47-.13-.06-.19-.09-.32-.16-.22-.1-.3-.24-.36-.43-.14-.52-.47-1.05-1.07-1.54-1.25-1-2.53-.89-3.07-.14s-.25,1.87.89,2.79c.64.51,1.08.66,1.58.72.18.03.32.1.43.3.07.12.1.18.17.3-.72.04-1.45-.16-2.48-.99-1.42-1.14-1.91-2.56-1.24-3.54Z"/>
        <path class="cls-1" d="M71.78,21.16c.07.08.1.12.17.2-.45,2.09-.74,3.11-1.46,5.06-.11-.17-.16-.25-.27-.41-.12-.18-.15-.35-.11-.5.1-.3.15-.45.25-.76-.82-1.15-1.26-1.69-2.19-2.72-.31.04-.47.06-.78.1-.15.02-.31-.05-.45-.2-.13-.14-.2-.21-.33-.34,2.01-.33,3.05-.43,5.17-.44ZM70.52,24.29c.31-.98.44-1.48.69-2.5-1.03.03-1.54.07-2.55.18.78.88,1.16,1.34,1.86,2.31Z"/>
        <path class="cls-1" d="M74.75,25.46c.08.14.12.21.2.35.14.25.13.45,0,.53-1.19.69-1.79,1.04-2.98,1.73.56,1.03.83,1.57,1.31,2.68.1.24.07.44-.08.5-.06.03-.09.04-.14.06-.65-1.56-1.01-2.3-1.83-3.7,1.41-.86,2.12-1.29,3.53-2.16Z"/>
        <path class="cls-1" d="M77.38,31.11c.06.16.09.24.14.4.1.29.06.49-.09.55-1.28.48-1.93.72-3.21,1.19.4,1.18.57,1.8.87,3.06.06.28,0,.47-.15.51-.06.02-.09.02-.15.04-.39-1.77-.64-2.62-1.23-4.23,1.53-.61,2.29-.92,3.82-1.53Z"/>
        <path class="cls-1" d="M75.21,39.12c.61-.11.91-.16,1.52-.27.82-1.31,1.21-2,1.93-3.42.07.28.1.42.16.7.05.26.04.46-.05.62-.56,1.01-.86,1.5-1.48,2.46.86.7,1.28,1.08,2.11,1.91.14.13.2.33.23.62.02.3.03.46.05.76-1.09-1.21-1.66-1.75-2.82-2.73-.5.08-.76.11-1.26.19-.18.03-.29-.13-.34-.45-.02-.16-.03-.23-.06-.39Z"/>
      </g>
    </g>
  </g>
</svg>