<?xml version="1.0" encoding="UTF-8"?>
<svg id="Layer_2" data-name="Layer 2" xmlns="http://www.w3.org/2000/svg" viewBox="0 0 86.82 86.82">
  <defs>
    <style>
      .cls-1 {
        fill: #29286b;
      }

      .cls-2 {
        stroke-linecap: round;
        stroke-linejoin: round;
      }

      .cls-2, .cls-3 {
        fill: none;
        stroke: #29286b;
      }

      .cls-3 {
        stroke-miterlimit: 10;
        stroke-width: 2px;
      }
    </style>
  </defs>
  <g id="Layer_1-2" data-name="Layer 1">
    <g>
      <path class="cls-2" d="M50.99,33.24c-9.73-6.29-19.8-1.77-29.11-11.63-2.17-2.3-.91,25.78,10.74,36.42,8.52,7.77,21.67,6.91,26.1-.65,4.43-7.55,2-17.86-7.73-24.15Z"/>
      <path class="cls-2" d="M34.69,42.17c9.42,8.87,19.16,14.12,31.97,16.09"/>
      <g>
        <path class="cls-1" d="M19.51,18.12c-.82-1.34-.28-3.2,1.48-4.12,1.77-.92,3.58-.29,4.21,1.15.63,1.44,0,3.1-1.57,3.92-1.55.81-3.29.39-4.12-.95ZM23.36,18.57c1.17-.61,1.66-1.98,1.15-3.11-.51-1.12-1.97-1.62-3.26-.95-1.27.66-1.71,2.16-1.08,3.22.63,1.07,2.04,1.44,3.2.84Z"/>
        <path class="cls-1" d="M26.86,11.53c1.09-.4,1.64-.58,2.75-.91,1.19-.36,2.23.16,2.49,1.19.22.85-.15,1.64-1.08,2.07.82.58,1.22.88,1.99,1.5-.21.05-.32.08-.53.14-.18.05-.33.02-.47-.09-.67-.52-1.01-.77-1.72-1.26-.61.19-.91.29-1.51.49.2.58.3.88.51,1.46.07.21-.02.39-.24.47-.12.04-.18.06-.3.11-.75-2.06-1.13-3.09-1.89-5.16ZM30.38,13.55c.62-.19,1.22-.73,1-1.56-.12-.45-.6-1.14-1.71-.8-.75.23-1.13.35-1.88.61.32.93.49,1.4.81,2.33.71-.25,1.06-.36,1.78-.58Z"/>
        <path class="cls-1" d="M40.89,11.64c.02,1.4-.91,2.63-2.66,2.86-1.67.21-3.14-.79-3.44-2.33-.3-1.54.9-3.1,2.72-3.33,1.03-.13,1.99.19,2.62.79-.11.07-.17.1-.28.17-.2.13-.37.11-.56-.01-.47-.31-1.08-.46-1.7-.38-1.38.18-2.29,1.41-2.07,2.62.22,1.2,1.33,2.05,2.64,1.89,1.2-.15,2.08-.96,2.03-1.99-.8.06-1.2.1-1.99.2-.24.03-.39-.08-.42-.3-.01-.09-.02-.14-.03-.23,1.25-.16,1.87-.22,3.13-.3.02.11.03.24.03.34Z"/>
        <path class="cls-1" d="M45.81,8.59c.1,0,.15,0,.25.01,1.15,2.25,1.66,3.4,2.53,5.7-.18-.02-.27-.03-.45-.05-.19-.02-.33-.12-.41-.29-.14-.35-.21-.53-.36-.88-1.31-.11-1.96-.14-3.27-.15-.18.34-.26.51-.43.85-.09.17-.23.26-.43.26-.18,0-.27,0-.45,0,1.07-2.22,1.68-3.31,3.02-5.46ZM47.16,12.53c-.47-1.13-.73-1.7-1.27-2.82-.64,1.07-.94,1.61-1.51,2.69,1.11.02,1.67.04,2.78.12Z"/>
        <path class="cls-1" d="M51.71,9.2c.1.02.16.03.26.04,1.51,1.93,2.18,2.92,3.37,4.94.39-1.45.58-2.18.97-3.63.06-.22.25-.31.5-.24.14.04.21.06.35.1-.6,2.11-.9,3.17-1.5,5.28-.09-.03-.14-.04-.24-.07-1.11-2.02-1.75-3.02-3.18-4.95-.27,1.48-.4,2.22-.67,3.7-.04.22-.2.33-.44.29-.12-.02-.19-.03-.31-.05.35-2.17.54-3.25.89-5.42Z"/>
        <path class="cls-1" d="M58.64,16.27c.69-1.93,1.04-2.89,1.74-4.82.14.05.21.07.34.13.24.09.35.27.27.48-.73,1.92-1.09,2.88-1.82,4.8-.13-.05-.2-.07-.33-.12-.2-.07-.28-.25-.2-.47Z"/>
        <path class="cls-1" d="M62.83,15.41c.65-1.44,2.42-2.07,4.21-1.1,1.18.63,1.68,1.47,1.78,2.38-.15-.02-.22-.03-.36-.05-.24-.03-.35-.16-.42-.37-.19-.56-.58-1.08-1.26-1.44-1.4-.75-2.73-.2-3.25.91-.53,1.11-.17,2.41,1.11,3.11.72.39,1.2.39,1.75.26.2-.04.35-.01.49.18.08.11.13.17.21.28-.78.34-1.58.4-2.74-.23-1.59-.85-2.16-2.48-1.51-3.92Z"/>
      </g>
      <g>
        <path class="cls-1" d="M21.9,63.55c.73.67,1.11.98,1.88,1.59,1.29,1.02,1.45,2.09.86,2.96-.58.86-1.76,1.04-3.09,0-.61-.48-.91-.73-1.51-1.25-.38.43-.56.65-.94,1.08-.15.17-.37.15-.6-.05-.12-.11-.18-.16-.3-.27,1.48-1.62,2.22-2.44,3.69-4.06ZM21.9,67.66c.89.7,1.69.55,2.09-.01.41-.57.3-1.38-.54-2.04-.55-.43-.82-.66-1.36-1.12-.68.78-1.02,1.17-1.69,1.95.59.51.89.76,1.49,1.23Z"/>
        <path class="cls-1" d="M27.89,67.93c.94.54,1.42.79,2.39,1.26,1.04.5,1.52,1.49,1.12,2.48-.33.81-1.14,1.23-2.22.9.3,1,.46,1.5.83,2.5-.24-.1-.36-.15-.61-.25-.2-.09-.33-.22-.4-.4-.28-.87-.41-1.3-.63-2.17-.63-.31-.94-.47-1.56-.81-.3.54-.45.81-.74,1.35-.11.2-.33.23-.58.09-.13-.08-.2-.11-.34-.19,1.1-1.9,1.64-2.85,2.74-4.76ZM28.87,71.87c.62.3,1.49.28,1.83-.51.18-.43.24-1.23-.76-1.71-.68-.33-1.01-.5-1.68-.86-.47.87-.71,1.3-1.19,2.16.71.39,1.07.58,1.8.93Z"/>
        <path class="cls-1" d="M33.55,73.45c.49-1.5,2.09-2.3,3.82-1.9,1.74.4,2.81,1.82,2.6,3.38-.22,1.56-1.86,2.65-3.89,2.18-2.01-.46-3.02-2.17-2.53-3.67ZM36.21,76.56c1.47.34,2.8-.52,3-1.74.2-1.21-.66-2.41-1.96-2.71-1.29-.3-2.58.41-2.94,1.58-.36,1.18.45,2.54,1.91,2.87Z"/>
        <path class="cls-1" d="M43.03,72.48c.9.06,1.35.07,2.26.06,1.75,0,3.01.78,3.17,2.6.16,1.81-1.11,2.89-3.15,2.89-1.05,0-1.57-.01-2.62-.07.14-2.19.2-3.29.34-5.48ZM45.19,77.47c.98,0,2.61-.4,2.49-2.26-.13-1.86-1.63-2.1-2.49-2.1-.59,0-.88,0-1.47-.03-.07,1.74-.11,2.62-.18,4.36.66.03.99.03,1.66.03Z"/>
        <path class="cls-1" d="M51.43,75.34c-.22-1.31-.33-1.96-.55-3.28.13-.02.2-.03.33-.06.24-.04.4.06.44.28.22,1.15.33,1.72.54,2.87.26,1.37,1.57,1.47,2.32,1.29.72-.18,1.86-.87,1.46-2.21-.33-1.12-.5-1.68-.84-2.8-.06-.21.03-.38.27-.45.12-.04.18-.06.3-.1.41,1.27.61,1.9,1.02,3.16.42,1.31-.38,2.53-2.08,2.94-1.7.41-2.99-.3-3.22-1.66Z"/>
        <path class="cls-1" d="M59.32,72.51c-.6-1.46.06-3.08,1.71-3.94,1.08-.56,1.97-.57,2.8-.24-.08.12-.12.18-.21.29-.14.2-.3.22-.51.18-.57-.12-1.17-.06-1.81.27-1.32.69-1.74,1.99-1.24,3.12.49,1.13,1.85,1.7,3.36.91.84-.44,1.16-.9,1.36-1.47.08-.2.19-.33.45-.38.15-.03.23-.05.38-.08-.11.89-.55,1.72-1.95,2.45-1.92,1-3.74.34-4.34-1.12Z"/>
        <path class="cls-1" d="M66.68,65.73c-.61.47-.92.7-1.54,1.13-.05-.07-.07-.1-.12-.17-.12-.18-.07-.38.13-.52,1.35-.96,2-1.48,3.25-2.62.06.06.08.09.14.16.15.16.13.36-.07.54-.47.42-.7.62-1.19,1.01,1.15,1.42,1.73,2.13,2.88,3.55.14.17.09.38-.14.56-.13.1-.19.15-.32.25-1.21-1.56-1.81-2.33-3.02-3.89Z"/>
      </g>
      <circle class="cls-3" cx="43.41" cy="43.41" r="42.41"/>
    </g>
  </g>
</svg>